<?xml version="1.0" encoding="UTF-8" standalone="no"?>
<!DOCTYPE svg PUBLIC "-//W3C//DTD SVG 1.1//EN" "http://www.w3.org/Graphics/SVG/1.1/DTD/svg11.dtd">
<svg version="1.1" xmlns="http://www.w3.org/2000/svg" xmlns:xlink="http://www.w3.org/1999/xlink" preserveAspectRatio="xMidYMid meet" viewBox="0 0 290 290" width="290" height="290"><defs><path d="M261.92 89.88C249.74 89.88 152.29 89.88 140.11 89.88C140.11 89.88 140.1 89.88 140.1 89.88C131.89 89.88 66.19 89.88 57.98 89.88C28.73 89.89 5.01 113.6 5 142.86C5 145.71 5 168.57 5 171.42C5 171.59 5 171.86 5 172.06C4.94 188.16 13.52 200.58 25.35 209.23C60.83 235.02 127.16 234.93 127.57 235.11C127.57 235.11 127.59 235.11 127.6 235.11C128.68 235.11 129.7 234.76 130.55 234.09C144.4 223.28 156.65 217.49 165.35 214.41C169.7 212.87 173.17 212 175.5 211.54C176.67 211.3 177.55 211.16 178.12 211.08C178.7 211 178.86 211 178.86 210.99C180.59 210.85 182.12 209.78 182.84 208.19C184.97 203.46 186.04 199.22 186.04 195.31C186.13 188.7 182.65 183.42 178.36 180.5C170.28 174.94 159.93 174.7 155.03 174.61C153.38 174.61 152.35 174.68 152.26 174.69C151.65 174.73 151.04 174.89 150.5 175.17C132.69 183.89 121.94 186.12 116.12 186.1C112.3 186.08 110.66 185.23 110 184.79C109.94 184.75 109.89 184.71 109.84 184.67C109.7 183.81 109 179.51 107.74 171.75C193.84 171.75 241.67 171.75 251.23 171.75C263.98 171.74 274.31 161.41 274.31 148.66C274.27 143.55 272.66 138.63 269.85 134.58C278.67 131.34 284.99 122.92 285 112.96C284.99 100.22 274.66 89.88 261.92 89.88ZM166.87 125.58C164.23 125.58 162.09 127.73 162.09 130.37C162.09 133.01 164.23 135.15 166.87 135.15C175.79 135.15 247.13 135.15 256.05 135.15C260.85 136.99 264.81 142.84 264.73 148.66C264.72 156.13 258.68 162.17 251.22 162.18C236.31 162.18 117.02 162.18 102.11 162.18C100.71 162.18 99.38 162.8 98.47 163.86C97.56 164.93 97.17 166.34 97.39 167.73C97.6 169.04 98.66 175.58 100.57 187.35C100.74 187.96 100.84 188.3 100.85 188.36C101.17 189.83 105.46 195.9 116.11 195.66C124.11 195.64 135.72 192.91 153.79 184.19C154.12 184.18 154.53 184.18 155.02 184.18C159.11 184.08 168.35 184.94 172.82 188.3C175.19 190.1 176.39 191.76 176.47 195.32C176.47 196.99 176.1 199.17 175.1 201.87C167.98 203.14 148.95 207.97 126.02 225.52C123.32 225.45 117.44 225.22 109.62 224.53C93.32 223.09 68.79 219.54 48.89 211.29C38.93 207.19 30.19 201.92 24.14 195.47C18.09 188.98 14.6 181.57 14.57 172.06C14.57 172.03 14.57 171.86 14.57 171.56C14.57 154.34 14.57 144.77 14.57 142.86C14.61 118.88 34.01 99.49 57.98 99.44C64.44 99.44 116.1 99.44 122.56 99.44C122.58 99.44 122.59 99.45 122.62 99.45C136.55 99.45 247.99 99.45 261.92 99.45C269.38 99.46 275.43 105.5 275.44 112.97C275.44 118.73 271.82 123.64 266.73 125.58C246.76 125.58 176.86 125.58 166.87 125.58Z" id="bAPr1tzEq"></path></defs><g><g><g><use xlink:href="#bAPr1tzEq" opacity="1" fill="#000000" fill-opacity="1"></use><g><use xlink:href="#bAPr1tzEq" opacity="1" fill-opacity="0" stroke="#000000" stroke-width="1" stroke-opacity="0"></use></g></g></g></g></svg>