<?xml version="1.0" encoding="UTF-8" standalone="no"?>
<!DOCTYPE svg PUBLIC "-//W3C//DTD SVG 1.1//EN" "http://www.w3.org/Graphics/SVG/1.1/DTD/svg11.dtd">
<svg version="1.1" xmlns="http://www.w3.org/2000/svg" xmlns:xlink="http://www.w3.org/1999/xlink" preserveAspectRatio="xMidYMid meet" viewBox="0 0 680 680" width="680" height="680"><defs><path d="M155.21 199.94C155.21 200.46 154.79 200.88 154.27 200.88C153.75 200.88 153.33 200.46 153.33 199.94C153.33 199.42 153.75 199 154.27 199C154.79 199 155.21 199.42 155.21 199.94Z" id="bzz2drn1N"></path><path d="M386.04 44.38C386.13 43.73 386.18 43.1 386.18 42.47C386.18 35.82 381.28 30.03 374.52 29.08C373.88 28.99 373.24 28.94 372.62 28.94C365.96 28.94 360.18 33.83 359.23 40.6C358.64 44.49 355.76 63.93 350.55 98.92C339.84 61.1 333.89 40.08 332.7 35.88C331.08 29.87 325.62 25.88 319.64 25.88C318.47 25.88 317.29 26.03 316.12 26.35C310.08 27.97 306.08 33.44 306.08 39.42C306.08 39.83 306.13 40.25 306.17 40.66C304.49 39.93 302.67 39.49 300.79 39.49C299.62 39.49 298.44 39.64 297.26 39.96C291.22 41.59 287.23 47.04 287.23 53.03C287.23 54.19 287.38 55.38 287.7 56.56C288.51 59.89 295.01 86.55 295.82 89.89C294.23 90.17 292.55 90.69 290.74 91.51C289.82 91.94 289.2 92.83 289.11 93.85C289.11 93.85 289.11 93.94 289.06 94.28C288.73 96.63 286.67 107.97 275.56 122.2C275.13 122.75 274.91 123.46 274.98 124.16C274.99 124.28 276.42 141.7 282.18 159.37C285.07 168.21 289.03 177.12 294.64 184.04C300.19 190.92 307.71 195.88 317.13 195.88C317.14 195.88 317.18 195.88 317.19 195.88C317.37 195.87 317.47 195.87 317.49 195.87C322.32 195.87 360.93 195.87 365.76 195.87C382.92 195.87 396.83 181.95 396.83 164.78C396.83 162.17 396.83 149.14 396.83 125.67C401.68 87.56 404.37 66.38 404.91 62.15C404.99 61.53 405.03 60.9 405.03 60.28C405.03 53.62 400.14 47.84 393.38 46.88C392.74 46.79 392.11 46.75 391.48 46.75C389.36 46.75 387.32 47.25 385.5 48.15C385.56 47.78 385.99 44.76 386.04 44.38ZM391.23 127.15C391.23 149.73 391.23 162.28 391.23 164.78C391.2 178.86 379.82 190.24 365.76 190.27C360.94 190.27 322.39 190.27 317.57 190.27C317.41 190.26 317.26 190.27 317.19 190.27C309.78 190.24 303.97 186.57 298.99 180.5C291.56 171.42 286.8 157.13 284.09 145.18C282.73 139.21 281.85 133.81 281.31 129.93C280.98 127.59 280.78 125.81 280.67 124.76C290.9 111.34 293.72 100.22 294.46 96.04C295.49 95.66 296.38 95.45 297.15 95.34C297.57 95.28 297.96 95.24 298.31 95.24C298.96 95.24 299.5 95.34 299.96 95.49C300.98 95.82 301.73 96.42 302.44 97.4C304.4 100.01 304.91 105.44 304.86 107.85C304.86 108.13 304.85 108.37 304.84 108.56C304.38 109.53 303.95 110.45 303.54 111.35C302.96 112.63 302.45 113.84 301.98 115.01C299.12 122.05 298.12 127.01 298.11 130.68C297.97 136.92 301.52 139.44 302.38 139.62C302.4 139.63 302.48 139.66 302.63 139.72C306.41 140.83 308.5 141.45 308.92 141.58C308.99 141.6 309.06 141.6 309.12 141.61C309.18 141.62 309.23 141.63 309.28 141.63C309.41 141.67 309.55 141.67 309.69 141.68C309.85 141.7 310 141.75 310.15 141.74C311 141.76 315.17 141.91 319.74 143.35C324.75 144.94 329.98 147.92 332.57 153.56C333.05 154.59 334.06 155.19 335.12 155.19C335.51 155.19 335.91 155.11 336.29 154.94C337.7 154.29 338.31 152.62 337.67 151.22C334.12 143.56 327.22 139.82 321.43 138C317.61 136.8 314.19 136.38 312.09 136.22C311.98 135.58 311.4 132.37 310.36 126.59C310.29 126.17 309.69 122.85 309.62 122.44C308.82 118 308.38 115.54 308.29 115.05C308.27 114.93 308.24 114.8 308.2 114.68C308.35 114.34 308.49 114.01 308.65 113.67C309.12 112.64 309.6 111.6 310.14 110.49C310.31 110.16 310.4 109.81 310.42 109.44C310.43 109.4 310.46 108.8 310.46 107.84C310.41 104.96 310.26 98.89 307 94.14C305.79 92.41 304 90.88 301.67 90.14C301.66 90.14 301.66 90.14 301.65 90.14C300.8 86.64 293.99 58.66 293.14 55.16C292.93 54.4 292.84 53.71 292.84 53.04C292.84 49.55 295.18 46.33 298.73 45.38C299.42 45.2 300.1 45.1 300.79 45.1C304.28 45.1 307.49 47.44 308.44 50.99C309.26 53.88 313.35 68.36 320.72 94.43C323.81 105.66 325.52 111.9 325.86 113.15C326.21 114.39 327.34 115.21 328.57 115.21C328.81 115.21 329.06 115.18 329.31 115.11C330.8 114.7 331.68 113.15 331.27 111.66C331.19 111.37 330.55 109.05 330.48 108.76C330.48 108.5 330.46 108.25 330.38 107.99C330.38 107.99 330.38 107.99 330.38 107.99C329.96 106.49 326.57 94.49 326.14 92.99C317.63 62.07 312.91 44.9 311.96 41.46C311.78 40.78 311.69 40.1 311.69 39.42C311.69 35.92 314.03 32.71 317.57 31.77C318.26 31.58 318.95 31.49 319.64 31.49C323.13 31.49 326.35 33.82 327.29 37.37C329.37 44.69 345.95 103.25 348.02 110.57C348.42 111.98 349.83 112.81 351.23 112.55C351.27 112.56 351.31 112.58 351.35 112.58C351.49 112.6 351.63 112.61 351.77 112.61C353.13 112.61 354.34 111.61 354.55 110.22C354.55 110.22 354.55 110.22 354.54 110.21C360.68 68.93 364.1 46 364.78 41.41C365.33 37.41 368.74 34.55 372.62 34.55C372.99 34.55 373.36 34.58 373.73 34.63C377.7 35.18 380.56 38.59 380.56 42.47C380.56 42.83 380.54 43.21 380.48 43.61C380.31 44.83 378.91 54.57 378.73 55.78C378.43 56.62 378.21 57.5 378.09 58.41C377.73 60.97 375.99 73.72 372.84 96.68C372.2 101.05 371.85 103.48 371.79 103.97C371.76 104.15 371.75 104.33 371.76 104.5C371.68 105.07 371.06 109.58 370.98 110.15C370.77 111.69 371.85 113.1 373.38 113.31C374.91 113.52 376.33 112.45 376.54 110.91C376.67 110.04 377.26 105.67 378.34 97.79C381.85 73.48 383.79 59.98 384.18 57.28C385.39 54.35 388.25 52.36 391.48 52.36C391.84 52.36 392.21 52.38 392.59 52.44C396.56 52.99 399.43 56.4 399.43 60.28C399.43 60.66 399.4 61.03 399.34 61.41C398.45 68.44 396.22 86.03 392.64 114.17C392.45 115.66 391.98 119.37 391.23 125.3C391.23 126.41 391.23 127.03 391.23 127.15ZM303.73 130.68C303.73 129.36 303.92 127.61 304.44 125.36C304.67 126.63 305.24 129.81 306.15 134.9C305.26 134.63 304.75 134.49 304.65 134.46C304.42 134.23 303.77 133.41 303.73 130.68Z" id="c1OFhmexG"></path><path d="M680 340C680 527.65 527.65 680 340 680C152.35 680 0 527.65 0 340C0 152.35 152.35 0 340 0C527.65 0 680 152.35 680 340Z" id="g20cuyht1j"></path><path d="M556.91 356.06C507.24 356.06 466.91 315.74 466.91 266.06C466.91 216.39 507.24 176.06 556.91 176.06C606.58 176.06 646.91 216.39 646.91 266.06C646.91 315.74 606.58 356.06 556.91 356.06Z" id="aW7OUc58a"></path><path d="M126.31 356.06C76.64 356.06 36.31 315.74 36.31 266.06C36.31 216.39 76.64 176.06 126.31 176.06C175.98 176.06 216.31 216.39 216.31 266.06C216.31 315.74 175.98 356.06 126.31 356.06Z" id="c1bB5PLRHN"></path><path d="M124.74 222.73C124.71 222.72 124.67 222.7 124.65 222.69C118.46 220.68 111.63 223.48 108.7 229.47C108.42 230.03 108.2 230.6 108.01 231.18C107.35 233.19 107.24 235.27 107.54 237.25C103.6 235.38 72.11 220.4 68.18 218.54C67.63 218.27 67.05 218.05 66.47 217.86C60.3 215.85 53.46 218.65 50.53 224.63C50.26 225.19 50.02 225.76 49.84 226.34C47.83 232.52 50.62 239.37 56.63 242.3C60.42 244.2 79.35 253.65 113.45 270.69C76.02 268.9 55.22 267.91 51.07 267.71C44.98 267.39 39.62 271.27 37.82 276.82C37.47 277.89 37.25 279.03 37.19 280.22C36.88 286.31 40.75 291.66 46.3 293.46C47.38 293.81 48.51 294.04 49.7 294.1C54.4 294.46 91.97 297.38 96.67 297.74C96.51 298.87 96.45 300.09 96.52 301.4C96.55 301.93 96.57 302.44 96.63 302.99C96.75 303.98 97.38 304.83 98.31 305.21C98.31 305.21 98.4 305.24 98.69 305.39C100.77 306.4 110.67 311.74 120.51 326.34C120.51 326.34 120.52 326.34 120.52 326.34C120.7 326.61 120.94 326.83 121.21 327.02C121.21 327.04 121.23 327.05 121.25 327.07C121.51 327.24 121.79 327.36 122.11 327.44C122.13 327.45 122.14 327.46 122.16 327.47C122.28 327.5 138.87 331.43 157 331.4C166.08 331.38 175.54 330.4 183.66 327.27C191.71 324.18 198.58 318.7 201.42 309.96C201.42 309.96 201.43 309.92 201.43 309.92C201.48 309.77 201.51 309.67 201.53 309.59C202.99 305.11 214.62 269.33 216.07 264.86C221.25 248.92 212.53 231.8 196.59 226.63C191.29 224.87 148.9 210.8 143.59 209.04C143.02 208.77 142.44 208.53 141.87 208.35C135.7 206.35 128.86 209.14 125.94 215.13C125.94 215.13 125.94 215.13 125.94 215.13C125.66 215.69 125.42 216.26 125.23 216.85C124.6 218.79 124.46 220.79 124.74 222.73ZM122.95 227.9C123.3 228.02 123.64 228.15 123.97 228.31C124.31 228.47 126 229.3 129.04 230.78C130.39 231.43 137.06 234.7 149.09 240.56C150.56 241.28 151.38 241.67 151.54 241.75C154.01 242.96 155.39 243.63 155.65 243.76C155.71 243.78 155.75 243.83 155.8 243.84C159.2 245.6 160.77 249.55 159.62 253.09C159.51 253.44 159.38 253.79 159.22 254.1C157.73 257.18 154.46 258.8 151.24 258.38C151.22 258.38 151.2 258.37 151.17 258.37C150.72 258.31 150.3 258.21 149.87 258.07C149.54 257.96 149.21 257.83 148.87 257.67C148.16 257.32 144.52 255.55 137.99 252.36C136.62 251.69 125.62 246.33 124.24 245.66C120.01 243.59 117.65 242.44 117.19 242.21C116.52 241.89 115.92 241.46 115.39 240.99C115.33 240.94 115.26 240.89 115.22 240.84C113.12 238.82 112.3 235.71 113.22 232.89C113.22 232.89 113.22 232.89 113.22 232.88C113.33 232.55 113.46 232.2 113.63 231.87C115.33 228.36 119.36 226.73 122.95 227.9ZM139.6 303.25C139.6 303.25 139.6 303.24 139.6 303.24C138.99 303.25 138.13 303.13 136.88 302.75C136.73 302.7 136.56 302.64 136.42 302.58C136.23 302.52 136.03 302.45 135.84 302.37C135.67 302.31 135.49 302.21 135.32 302.14C135.08 302.04 134.85 301.94 134.6 301.82C134.42 301.73 134.21 301.62 134.01 301.52C133.76 301.39 133.48 301.25 133.21 301.09C132.99 300.97 132.78 300.85 132.55 300.71C132.44 300.64 132.32 300.56 132.19 300.49C132.82 300.58 135.93 301.01 141.51 301.78C141.43 301.9 140.75 302.91 140.66 303.03C140.61 303.07 140.56 303.08 140.53 303.09C140.37 303.15 140.13 303.21 139.79 303.23C139.72 303.23 139.67 303.24 139.6 303.25ZM196.23 308.23C193.98 315.09 188.81 319.38 181.68 322.17C171.01 326.32 156.32 326.44 144.42 325.35C138.45 324.82 133.19 324.01 129.42 323.33C127.15 322.94 125.45 322.58 124.44 322.37C124.28 322.13 124.12 321.91 123.96 321.67C123.61 321.18 123.26 320.7 122.91 320.23C122.67 319.9 122.42 319.59 122.18 319.26C121.84 318.81 121.49 318.34 121.14 317.9C120.9 317.6 120.67 317.31 120.44 317.02C120.09 316.59 119.73 316.16 119.39 315.74C119.16 315.48 118.93 315.21 118.7 314.96C118.35 314.55 118 314.14 117.65 313.76C117.44 313.51 117.23 313.29 117.02 313.06C116.65 312.66 116.3 312.29 115.95 311.92C115.74 311.71 115.55 311.52 115.35 311.32C115 310.96 114.63 310.59 114.29 310.26C114.1 310.07 113.92 309.9 113.74 309.72C113.38 309.38 113.02 309.05 112.68 308.73C112.51 308.57 112.35 308.43 112.18 308.28C111.83 307.96 111.48 307.64 111.13 307.35C110.99 307.22 110.83 307.1 110.69 306.97C110.33 306.68 109.98 306.39 109.65 306.11C109.52 306 109.39 305.91 109.27 305.81C108.92 305.53 108.57 305.27 108.24 305.01C108.14 304.92 108.03 304.86 107.92 304.77C107.58 304.52 107.26 304.27 106.93 304.04C106.84 303.97 106.76 303.91 106.67 303.85C106.33 303.61 106.02 303.39 105.72 303.18C105.64 303.13 105.57 303.1 105.51 303.05C105.2 302.84 104.88 302.64 104.59 302.46C104.53 302.41 104.46 302.37 104.39 302.33C104.11 302.16 103.84 301.99 103.6 301.84C103.49 301.77 103.39 301.72 103.29 301.66C103.09 301.55 102.9 301.42 102.72 301.33C102.45 301.17 102.2 301.04 101.96 300.91C101.93 299.86 101.99 298.98 102.12 298.23C102.12 298.22 102.13 298.19 102.13 298.17C102.2 297.78 102.28 297.42 102.38 297.1C102.58 296.49 102.83 296.02 103.11 295.65C103.55 295.04 104.06 294.62 104.72 294.3C105 294.16 105.29 294.03 105.62 293.93C106.49 293.63 107.54 293.52 108.65 293.54C111.39 293.54 114.48 294.28 116.05 294.84C116.31 294.92 116.54 294.99 116.7 295.06C116.7 295.06 116.7 295.06 116.71 295.06C116.96 295.29 117.18 295.49 117.41 295.71C117.92 296.18 118.42 296.66 118.9 297.1C119.91 298.03 120.88 298.87 121.82 299.66C127.5 304.43 131.81 306.85 135.2 307.97C135.8 308.17 136.35 308.31 136.9 308.42C140.96 309.3 143.59 307.88 144.49 307.05C144.64 306.91 144.73 306.79 144.79 306.7C144.79 306.7 144.81 306.67 144.85 306.62C144.85 306.61 144.89 306.57 144.95 306.49C146.79 303.8 147.83 302.31 148.03 302.01C148.35 301.54 148.53 301.28 148.57 301.23C148.72 301.02 148.82 300.79 148.9 300.56C148.91 300.54 148.91 300.53 148.91 300.52C148.93 300.47 148.92 300.42 148.94 300.37C148.97 300.28 148.99 300.19 149 300.09C149.28 299.3 150.66 295.61 153.29 291.89C156.3 287.66 160.71 283.61 166.82 282.89C167.91 282.76 168.79 282 169.11 281.02C169.23 280.65 169.27 280.26 169.21 279.85C169.04 278.34 167.67 277.28 166.18 277.45C157.88 278.45 152.28 283.85 148.82 288.72C146.64 291.83 145.23 294.8 144.46 296.65C143.84 296.57 140.71 296.14 135.1 295.37C134.7 295.31 131.42 294.87 131.02 294.81C126.83 294.52 124.49 294.35 124.02 294.32C123.54 293.91 123.09 293.52 122.59 293.06C121.82 292.36 121.03 291.62 120.21 290.83C120.21 290.83 120.2 290.81 120.2 290.81C120.17 290.78 120.13 290.75 120.1 290.72C119.84 290.46 119.55 290.28 119.22 290.14C119.17 290.13 118.87 290 118.34 289.83C118.16 289.76 117.96 289.7 117.74 289.62C117.74 289.62 117.74 289.62 117.74 289.62C117.24 289.47 116.6 289.28 115.9 289.1C115.58 289.01 115.27 288.93 114.92 288.84C114.55 288.75 114.15 288.67 113.75 288.59C110.94 288 107.41 287.68 103.99 288.7C103.39 288.89 102.78 289.15 102.2 289.45C100.88 290.13 99.65 291.08 98.69 292.41C93.83 292.03 54.92 289.01 50.06 288.64C49.29 288.59 48.63 288.47 47.99 288.26C44.75 287.21 42.47 284.06 42.66 280.5C42.69 279.8 42.82 279.14 43.02 278.51C44.08 275.26 47.22 272.98 50.8 273.17C55.34 273.4 78.07 274.47 118.97 276.44C121.77 276.57 123.33 276.64 123.64 276.65C123.93 276.66 124.21 276.63 124.48 276.56C125.52 276.26 126.33 275.38 126.47 274.27C126.5 274.24 126.52 274.21 126.54 274.18C127.21 272.82 126.66 271.18 125.32 270.5C125.21 270.45 124.72 270.21 123.84 269.77C123.26 269.48 118.62 267.16 118.03 266.87C82.64 249.18 62.98 239.36 59.04 237.4C55.51 235.68 53.87 231.65 55.05 228.04C55.16 227.7 55.3 227.37 55.46 227.03C57.16 223.53 61.2 221.89 64.79 223.06C65.13 223.18 65.48 223.32 65.8 223.48C73.87 227.39 138.41 258.68 146.47 262.59C147.03 262.86 147.59 263.09 148.18 263.27C148.9 263.51 149.65 263.68 150.39 263.8C155.92 264.6 161.56 261.79 164.14 256.5C164.42 255.94 164.65 255.36 164.83 254.79C166.57 249.46 164.71 243.65 160.33 240.26C162.59 239 164.52 237.07 165.75 234.56C166.02 234.02 166.23 233.46 166.41 232.91C166.41 232.91 166.43 232.84 166.43 232.84C167.61 229.21 167.1 225.38 165.3 222.23C167.28 222.87 177.14 226.08 194.89 231.85C194.89 231.85 194.9 231.84 194.9 231.84C208.35 244.01 213.68 254.46 210.87 263.17C209.42 267.64 197.8 303.4 196.34 307.87C196.3 308 196.26 308.13 196.23 308.23ZM154.13 220.27C156.01 221.19 157.07 221.71 157.27 221.81C157.71 222.02 158.11 222.27 158.52 222.58C161.14 224.54 162.26 228.02 161.24 231.14C161.12 231.49 160.99 231.83 160.83 232.16C159.38 235.14 156.26 236.75 153.14 236.44C153.05 236.43 152.96 236.43 152.87 236.43C152.84 236.43 152.82 236.43 152.79 236.42C152.33 236.37 151.9 236.26 151.46 236.11C151.14 236.01 150.82 235.88 150.48 235.72C149.79 235.38 146.36 233.71 140.18 230.69C136.72 229 134.78 228.07 134.4 227.87C133.96 227.66 133.53 227.4 133.13 227.09C132.88 226.91 132.66 226.7 132.43 226.49C132.34 226.41 132.28 226.32 132.2 226.22C130.28 224.21 129.55 221.27 130.42 218.56C130.43 218.55 130.43 218.54 130.43 218.54C130.54 218.2 130.67 217.86 130.85 217.52C130.85 217.52 130.85 217.52 130.85 217.52C132.55 214.02 136.58 212.39 140.17 213.55C140.52 213.67 140.86 213.81 141.19 213.97C141.59 214.16 142.58 214.64 144.17 215.42C144.39 215.53 144.96 215.8 145.87 216.24C150.82 218.66 153.57 220.01 154.13 220.27Z" id="cntYTbbPC"></path><path d="M475.54 593.97C476.05 594.66 480.06 600.18 480.56 600.87C484.91 606.86 493.29 608.19 499.3 603.84C501.66 602.11 503.29 599.75 504.14 597.17C508.74 600.82 515.36 601.13 520.34 597.51C526.33 593.16 527.66 584.78 523.31 578.78C523.18 578.6 522.09 577.1 521.95 576.91C524.48 576.8 527 576 529.2 574.42C535.2 570.05 536.52 561.67 532.17 555.68C529.69 552.26 509.84 524.94 507.36 521.52C510.18 522.49 513.78 522.27 516.8 520.02C518.63 518.68 520.27 516.74 521.76 514.1C522.25 513.22 522.24 512.15 521.71 511.28C521.71 511.28 521.66 511.21 521.5 510.91C520.4 508.83 515.44 498.54 516.07 480.68C516.09 479.97 515.86 479.3 515.4 478.77C515.32 478.68 504.03 465.55 489.13 454.75C481.67 449.35 473.31 444.51 464.79 442.24C456.33 439.97 447.41 440.37 439.87 445.85C439.86 445.85 439.82 445.88 439.82 445.88C439.68 446 439.61 446.05 439.58 446.07C435.72 448.88 404.78 471.36 400.91 474.16C387.15 484.16 384.09 503.42 394.09 517.17C395.49 519.1 406.69 534.52 408.09 536.45C408.1 536.46 408.11 536.47 408.12 536.48C408.12 536.48 408.12 536.48 408.13 536.48C434.56 572.86 449.25 593.07 452.18 597.11C456.54 603.11 464.92 604.44 470.92 600.09C473.12 598.49 474.65 596.34 475.54 593.97ZM488.57 490.28C490.06 492.31 491.9 496.06 493.54 502.51C492.19 500.65 488.82 496.01 483.42 488.58C484.75 488.11 485.49 487.85 485.63 487.79C485.96 487.85 486.95 488.12 488.57 490.28ZM495.86 467.23C500.43 471.23 504.28 475.03 506.98 477.84C508.59 479.51 509.79 480.82 510.48 481.6C510.09 498.32 514.31 508.87 516.15 512.64C515.22 514.03 514.32 514.94 513.53 515.52C511.82 516.7 510.64 516.69 508.97 516.19C505.88 515.25 502.31 511.19 500.96 509.24C500.79 509.01 500.65 508.81 500.54 508.65C498.48 497.18 495.79 490.78 493.06 487.01C489.54 481.93 485.22 481.98 484.43 482.34C483.78 482.56 478.69 484.35 478.05 484.57C477.63 484.73 476.06 485.7 476.06 485.7C476.06 485.7 475.24 486.25 473.73 487.07C469.06 489.61 458.78 493.59 450.62 488.88C449.64 488.33 448.47 488.43 447.63 489.05C447.31 489.28 447.05 489.58 446.84 489.94C446.09 491.28 446.57 492.97 447.9 493.72C455.37 497.87 463.31 496.86 469.15 495.02C473.41 493.65 476.69 491.84 478.24 490.9C483.18 497.7 522.73 552.14 527.68 558.95C530.23 562.46 529.44 567.36 525.93 569.92C523.23 571.88 519.68 571.86 517.03 570.13C517.03 570.13 481.11 520.69 481.09 520.67C480.19 519.43 478.46 519.14 477.22 520.03C475.97 520.93 475.68 522.67 476.57 523.91C480.8 529.73 514.59 576.23 518.81 582.05C521.36 585.57 520.59 590.46 517.08 593.02C513.56 595.57 508.66 594.79 506.1 591.28C501.64 585.13 465.9 535.95 461.44 529.81C460.54 528.57 458.8 528.29 457.56 529.19C456.32 530.09 456.04 531.84 456.94 533.07C456.94 533.07 456.94 533.07 456.95 533.07C482.17 567.78 496.19 587.08 498.99 590.93C499.81 594 498.74 597.38 496.03 599.35C492.51 601.89 487.61 601.11 485.06 597.6C480.85 591.81 447.16 545.44 442.95 539.65C442.05 538.4 440.31 538.14 439.07 539.04C437.82 539.94 437.55 541.67 438.46 542.92C438.46 542.92 438.46 542.92 438.46 542.92C457.75 569.48 468.47 584.24 470.62 587.19C471.43 590.24 470.36 593.63 467.65 595.59C464.14 598.14 459.23 597.35 456.68 593.84C453.75 589.81 439.06 569.59 412.62 533.2C404.21 521.62 399.53 515.18 398.59 513.9C390.42 502.61 392.91 486.87 404.17 478.65C411.96 473 443.03 450.42 443.09 450.38C449.04 446.1 455.84 445.66 463.36 447.62C474.6 450.57 486.73 459.24 495.86 467.23Z" id="a6zc6kYYDi"></path><path d="M472.26 617.39C422.58 617.39 382.26 577.06 382.26 527.39C382.26 477.71 422.58 437.39 472.26 437.39C521.93 437.39 562.26 477.71 562.26 527.39C562.26 577.06 521.93 617.39 472.26 617.39Z" id="b8ByV8ac3"></path><path d="M210.06 617.39C160.39 617.39 120.06 577.06 120.06 527.39C120.06 477.71 160.39 437.39 210.06 437.39C259.74 437.39 300.06 477.71 300.06 527.39C300.06 577.06 259.74 617.39 210.06 617.39Z" id="b1159fGBv0"></path><path d="M613.19 273.57C612.19 270.54 610.32 268.07 607.92 266.33C613.23 262.81 615.78 256.07 613.71 249.72C611.57 243.12 605.15 239.11 598.5 239.74C597.74 239.85 597.91 239.86 597.59 239.94C596.85 240.15 595.21 240.67 592.95 241.4C593.74 238.69 593.78 235.72 592.85 232.84C590.7 226.23 584.28 222.22 577.63 222.85C577.59 222.87 577.37 222.92 577 222.99C571.9 224.64 569.06 225.56 568.5 225.75C570.44 223.16 571.45 219.38 570.14 215.5C569.36 213.15 567.91 210.81 565.69 208.39C564.95 207.59 563.84 207.24 562.78 207.5C562.78 207.5 562.67 207.53 562.31 207.59C559.8 208.04 547.53 209.69 529.3 203.06C528.59 202.8 527.81 202.82 527.1 203.11C526.98 203.17 509.8 210.36 493.79 222.07C485.79 227.94 478.06 234.92 472.91 242.95C467.78 250.9 465.25 260.24 468.4 269.88C468.46 270.07 468.49 270.16 468.5 270.19C468.53 270.27 468.71 270.87 468.74 270.95C469 272.91 469.43 274.9 470.08 276.86C471.47 281.14 482.61 315.41 483.99 319.69C489.69 337.22 508.54 346.83 526.08 341.13C531.09 339.48 556.11 331.26 601.17 316.44C609.05 309.32 612.17 303.2 610.51 298.11C609.58 295.24 607.83 292.9 605.63 291.18C612.11 288.08 615.46 280.59 613.19 273.57ZM599.3 310.71C597.43 311.31 582.44 316.18 580.58 316.79C580.06 316.96 579.54 317.06 579 317.14C579 317.14 579 317.14 579 317.14C575.03 317.64 571.12 315.28 569.84 311.32C569.1 309.03 569.38 306.66 570.43 304.69C570.9 303.83 571.52 303.05 572.25 302.39C572.38 302.27 572.51 302.16 572.65 302.04C572.75 301.96 572.85 301.87 572.95 301.79C572.95 301.79 572.95 301.79 572.95 301.79C573.66 301.27 574.45 300.87 575.31 300.57C577.18 299.97 592.17 295.11 594.04 294.5C594.55 294.32 595.09 294.22 595.66 294.14C595.98 294.1 596.31 294.09 596.67 294.09C596.8 294.09 596.92 294.11 597.06 294.11C600.5 294.27 603.66 296.5 604.78 299.97C604.78 299.97 604.77 299.97 604.77 299.97C606.23 304.44 603.78 309.24 599.3 310.71ZM565.07 298.17C562.27 299.07 559.34 298.45 557.18 296.77C555.89 295.77 554.87 294.37 554.33 292.69C553.43 289.96 554.01 287.1 555.62 284.95C556.07 284.34 556.63 283.8 557.25 283.32C557.31 283.27 557.37 283.21 557.43 283.16C558.14 282.65 558.92 282.24 559.79 281.96C563.48 280.76 593.02 271.16 596.71 269.96C597.58 269.68 598.46 269.55 599.34 269.54C599.43 269.55 599.53 269.56 599.62 269.57C603.1 269.68 606.31 271.92 607.45 275.41C607.45 275.41 607.45 275.43 607.45 275.43C608.9 279.91 606.45 284.71 601.99 286.18C598.29 287.38 568.76 296.97 565.07 298.17ZM607.99 251.59C609.44 256.07 607 260.86 602.53 262.32C602.41 262.36 556.51 277.17 555.8 277.43C555.45 277.55 555.17 277.66 554.93 277.75C554.83 277.81 554.77 277.83 554.7 277.85C554.65 277.87 554.6 277.87 554.55 277.88C554.2 277.98 553.88 278.03 553.53 278.08C553.37 278.12 553.21 278.16 553.05 278.17C552.66 278.21 552.27 278.2 551.88 278.18C551.72 278.17 551.56 278.18 551.4 278.16C551.03 278.13 550.66 278.05 550.29 277.95C550.14 277.91 549.96 277.9 549.81 277.84C549.46 277.75 549.14 277.6 548.82 277.46C548.65 277.38 548.47 277.33 548.31 277.24C548.01 277.08 547.74 276.88 547.46 276.7C547.29 276.58 547.12 276.49 546.95 276.36C546.7 276.16 546.48 275.92 546.25 275.69C546.09 275.53 545.92 275.39 545.78 275.24C545.56 274.99 545.38 274.68 545.18 274.39C545.08 274.22 544.93 274.06 544.83 273.89C544.58 273.43 544.37 272.94 544.19 272.44C544.18 272.4 544.16 272.38 544.15 272.33C544.06 272.03 544.01 271.72 543.96 271.43C543.12 267.28 545.46 263.28 549.7 261.86C549.76 261.84 597.85 246.17 598.52 245.96C598.85 245.86 599.11 245.78 599.28 245.72C599.28 245.72 599.28 245.72 599.29 245.72C603.1 245.46 606.76 247.79 607.99 251.59ZM553.5 253.99C553.32 253.99 553.13 253.98 552.95 253.95C552.75 253.93 552.56 253.91 552.37 253.88C552.13 253.84 551.91 253.77 551.69 253.71C551.5 253.67 551.29 253.62 551.1 253.54C550.89 253.48 550.68 253.39 550.48 253.29C550.29 253.21 550.1 253.13 549.92 253.03C549.72 252.94 549.53 252.81 549.34 252.7C549.16 252.59 548.98 252.49 548.81 252.36C548.64 252.23 548.47 252.07 548.29 251.92C548.14 251.79 547.98 251.67 547.84 251.52C547.67 251.36 547.51 251.17 547.36 250.97C547.24 250.84 547.1 250.69 546.99 250.54C546.83 250.32 546.69 250.08 546.55 249.84C546.46 249.69 546.37 249.55 546.29 249.41C546.09 249.03 545.93 248.62 545.78 248.21C545.78 248.19 545.77 248.17 545.76 248.14C545.61 247.66 545.49 247.19 545.43 246.7C545.41 246.56 545.42 246.41 545.4 246.27C545.37 245.93 545.35 245.6 545.35 245.27C545.36 245.08 545.4 244.89 545.41 244.7C545.43 244.42 545.45 244.15 545.51 243.87C545.55 243.67 545.62 243.46 545.68 243.26C545.75 243.01 545.8 242.76 545.89 242.53C545.97 242.32 546.08 242.13 546.18 241.92C546.28 241.7 546.37 241.48 546.5 241.28C546.61 241.07 546.75 240.89 546.88 240.7C547.01 240.51 547.14 240.31 547.29 240.12C547.44 239.94 547.61 239.78 547.77 239.61C547.94 239.44 548.08 239.27 548.26 239.11C548.45 238.96 548.64 238.82 548.83 238.68C549 238.56 549.17 238.43 549.34 238.32C551.29 237.69 561.01 234.53 578.51 228.84C578.51 228.84 578.51 228.84 578.51 228.84C583.43 230.23 586.31 232.19 587.12 234.7C588.24 238.15 587.03 241.81 584.37 243.96C581.28 244.97 556.58 252.99 553.5 253.99ZM530 234.66C532.6 233.81 537.07 233.16 544.28 233.62C541.91 234.39 536 236.31 526.51 239.39C526.47 237.87 526.45 237.02 526.45 236.85C526.61 236.54 527.23 235.6 530 234.66ZM474.69 269.94C474.69 269.9 474.64 269.72 474.57 269.41C474.39 268.84 474.29 268.52 474.27 268.46C474.26 268.39 474.24 268.33 474.22 268.27C474.19 268.17 474.15 268.08 474.13 268.03C471.69 260.44 473.49 253.28 478 246.2C484.73 235.63 497.63 226.06 508.85 219.36C514.45 215.99 519.62 213.31 523.38 211.48C525.63 210.38 527.36 209.59 528.39 209.14C545.5 215.14 557.8 214.33 562.31 213.7C563.43 215.12 564.08 216.36 564.4 217.37C565.04 219.52 564.64 220.74 563.57 222.29C561.56 225.17 556.17 227.49 553.7 228.23C553.4 228.33 553.15 228.41 552.96 228.46C540.44 226.75 532.94 227.38 528.14 228.92C521.71 230.85 520.33 235.33 520.42 236.27C520.44 237.01 520.59 242.86 520.59 243.59C520.61 244.05 522.37 249.96 522.43 254.96C522.48 260.68 521.18 267.15 516.2 271.74C515.31 272.55 515.03 273.8 515.38 274.89C515.51 275.29 515.73 275.67 516.03 275.99C517.17 277.22 519.07 277.28 520.29 276.16C527.04 269.9 528.53 261.46 528.45 254.89C528.4 250.99 527.82 247.65 527.32 245.48C528.58 245.07 538.67 241.79 539.93 241.38C539.85 241.61 539.83 241.85 539.77 242.09C539.69 242.38 539.63 242.69 539.58 242.99C539.48 243.45 539.44 243.93 539.41 244.41C539.38 244.7 539.35 245 539.35 245.29C539.33 245.83 539.38 246.36 539.43 246.91C539.45 247.15 539.45 247.39 539.49 247.63C539.61 248.42 539.78 249.22 540.03 250C540.03 250 540.03 250 540.03 250C540.05 250.06 540.08 250.1 540.1 250.16C540.33 250.85 540.6 251.52 540.93 252.15C541.04 252.36 541.18 252.56 541.3 252.76C541.56 253.21 541.83 253.67 542.13 254.08C542.29 254.3 542.49 254.51 542.66 254.73C542.95 255.09 543.25 255.44 543.57 255.77C543.79 255.98 544.03 256.17 544.25 256.37C544.51 256.6 544.75 256.86 545.04 257.07C540.04 259.92 537.2 265.51 537.81 271.24C537.81 271.28 537.82 271.31 537.82 271.35C537.87 271.78 537.94 272.19 538.03 272.62C538.03 272.68 538.04 272.73 538.05 272.79C538.16 273.26 538.28 273.72 538.43 274.19C538.45 274.24 538.47 274.26 538.48 274.3C538.65 274.83 538.86 275.34 539.09 275.84C539.17 276.01 539.25 276.17 539.34 276.34C539.53 276.71 539.74 277.09 539.97 277.43C540.06 277.58 540.14 277.73 540.25 277.88C540.56 278.34 540.9 278.8 541.26 279.22C541.31 279.28 541.37 279.32 541.41 279.38C541.75 279.75 542.1 280.11 542.47 280.45C542.59 280.55 542.72 280.67 542.84 280.77C543.18 281.06 543.53 281.32 543.88 281.58C544 281.65 544.1 281.74 544.2 281.8C544.68 282.12 545.17 282.41 545.68 282.66C545.74 282.7 545.8 282.72 545.85 282.75C546.3 282.97 546.77 283.17 547.25 283.34C547.38 283.39 547.51 283.44 547.64 283.48C548.11 283.64 548.58 283.77 549.06 283.88C549.13 283.9 549.18 283.91 549.24 283.94C549.02 284.4 548.84 284.87 548.67 285.35C548.64 285.45 548.61 285.55 548.58 285.64C548.38 286.27 548.22 286.91 548.1 287.54C548.1 287.6 548.09 287.63 548.08 287.68C547.97 288.34 547.92 289.02 547.9 289.7C547.89 289.83 547.89 289.96 547.89 290.07C547.89 290.75 547.93 291.42 548.03 292.09C548.05 292.22 548.07 292.35 548.09 292.47C548.21 293.15 548.37 293.83 548.58 294.51C548.58 294.53 548.59 294.55 548.59 294.56C548.63 294.66 548.67 294.75 548.71 294.84C548.82 295.19 548.95 295.52 549.09 295.86C549.17 296.03 549.24 296.21 549.34 296.36C549.45 296.61 549.56 296.86 549.69 297.09C549.8 297.26 549.9 297.43 550 297.61C550.13 297.82 550.26 298.03 550.4 298.25C550.52 298.41 550.64 298.58 550.76 298.74C550.9 298.95 551.06 299.13 551.22 299.33C551.35 299.48 551.47 299.62 551.6 299.78C551.78 299.97 551.96 300.15 552.13 300.33C552.26 300.46 552.39 300.6 552.53 300.73C552.73 300.92 552.94 301.08 553.15 301.26C553.28 301.36 553.41 301.49 553.54 301.58C553.86 301.83 554.18 302.06 554.52 302.27C554.62 302.34 554.74 302.4 554.84 302.47C555.13 302.65 555.43 302.82 555.73 302.97C555.89 303.06 556.04 303.12 556.2 303.2C556.44 303.31 556.68 303.42 556.92 303.53C557.1 303.6 557.28 303.66 557.46 303.72C557.69 303.81 557.93 303.9 558.16 303.97C558.35 304.03 558.54 304.08 558.72 304.12C558.97 304.19 559.21 304.25 559.44 304.3C559.64 304.34 559.84 304.38 560.03 304.41C560.27 304.46 560.52 304.48 560.78 304.52C560.96 304.54 561.16 304.56 561.34 304.58C561.62 304.6 561.9 304.61 562.17 304.61C562.34 304.61 562.52 304.63 562.69 304.61C563.12 304.62 563.57 304.59 564 304.53C563.9 304.87 563.85 305.22 563.77 305.58C563.7 305.86 563.63 306.15 563.58 306.45C563.5 306.89 563.48 307.35 563.46 307.81C563.44 308.09 563.41 308.37 563.4 308.66C563.4 309.16 563.45 309.68 563.5 310.19C563.53 310.44 563.53 310.68 563.56 310.92C563.69 311.68 563.85 312.43 564.1 313.19C564.34 313.94 564.65 314.64 565 315.31C565.03 315.37 565.06 315.43 565.09 315.48C565.42 316.12 565.81 316.73 566.22 317.29C566.28 317.37 566.33 317.46 566.39 317.52C566.8 318.07 567.26 318.57 567.74 319.06C567.83 319.12 567.89 319.2 567.97 319.27C568.47 319.74 568.98 320.17 569.53 320.55C569.57 320.58 569.6 320.62 569.65 320.65C566.62 321.63 551.47 326.55 524.21 335.41C524.21 335.41 524.21 335.4 524.21 335.4C504.35 333.26 492.87 327.4 489.73 317.82C488.34 313.54 477.21 279.29 475.82 275.01C475.27 273.32 474.9 271.63 474.69 269.94Z" id="bIvxTvG97"></path><path d="M210.06 617.39C160.39 617.39 120.06 577.06 120.06 527.39C120.06 477.71 160.39 437.39 210.06 437.39C259.74 437.39 300.06 477.71 300.06 527.39C300.06 577.06 259.74 617.39 210.06 617.39Z" id="a2NYfWfO1g"></path><path d="M340 200.88C290.33 200.88 250 160.55 250 110.88C250 61.2 290.33 20.88 340 20.88C389.67 20.88 430 61.2 430 110.88C430 160.55 389.67 200.88 340 200.88Z" id="e3jJraXFv"></path><path d="M340 200.88C290.33 200.88 250 160.55 250 110.88C250 61.2 290.33 20.88 340 20.88C389.67 20.88 430 61.2 430 110.88C430 160.55 389.67 200.88 340 200.88Z" id="a2EC9lBYBK"></path><path d="M192.55 562.21C196.58 565.15 228.86 588.59 232.89 591.52C247.25 601.96 267.37 598.78 277.81 584.41C278.83 583.01 286.99 571.78 288.01 570.38C288.07 570.3 288.17 570.17 288.24 570.07C294.01 562.17 294.23 553.01 291.5 544.54C283.28 519.21 250.67 495.58 250.54 495.35C250.54 495.35 250.53 495.34 250.52 495.34C249.98 494.95 249.36 494.77 248.71 494.79C238.04 495.16 229.96 493.62 224.59 492.03C221.9 491.24 219.88 490.43 218.58 489.83C217.92 489.53 217.43 489.28 217.13 489.11C216.82 488.95 216.74 488.89 216.73 488.9C215.83 488.34 214.7 488.32 213.77 488.85C211.04 490.41 209 492.12 207.61 494.04C205.2 497.25 205.03 501.09 206.09 504.05C208.08 509.67 213.08 513.47 215.45 515.27C216.26 515.86 216.79 516.19 216.84 516.22C217.15 516.42 217.51 516.56 217.88 516.61C229.74 518.68 235.82 521.43 238.67 523.51C240.54 524.88 241.04 525.89 241.2 526.34C241.22 526.38 241.22 526.42 241.24 526.45C241 526.93 239.81 529.29 237.66 533.55C195.37 502.82 171.87 485.75 167.18 482.34C160.91 477.8 152.16 479.19 147.61 485.45C145.8 487.98 144.84 490.96 144.77 493.95C139.28 492.4 133.17 494.28 129.61 499.17C125.06 505.43 126.45 514.19 132.71 518.74C138.69 523.09 186.56 557.87 192.55 562.21C192.55 562.21 192.55 562.21 192.55 562.21ZM195.55 530.43C191.17 527.25 156.13 501.79 151.75 498.6C150.05 495.99 150.19 491.7 152.31 488.86C154.98 485.2 160.1 484.39 163.77 487.05C171.09 492.37 229.68 534.94 237.01 540.27C237.7 540.77 238.57 540.93 239.4 540.74C240.22 540.54 240.92 539.98 241.3 539.22C241.67 538.5 243.48 534.91 246.75 528.44C246.89 528.09 246.95 527.89 246.97 527.85C247.34 527.02 247.4 522.5 242.08 518.82C238.14 515.98 231.47 513.17 219.48 511.01C219.31 510.9 219.11 510.75 218.87 510.57C216.83 509.16 212.59 505.45 211.6 502.2C211.08 500.47 211.08 499.23 212.31 497.44C212.91 496.63 213.86 495.69 215.32 494.72C219.27 496.64 230.35 501.05 247.87 500.62C249.17 501.61 251.98 503.83 255.57 506.96C263.06 513.47 273.85 523.98 280.68 535.13C284.11 540.7 286.51 546.41 287.19 551.73C287.85 557.08 286.92 561.97 283.54 566.65C283.53 566.66 283.46 566.75 283.36 566.9C277.21 575.36 273.8 580.06 273.11 581C264.53 592.76 248.08 595.36 236.29 586.83C233.12 584.53 207.74 566.09 204.57 563.78C204.56 563.78 204.56 563.76 204.55 563.75C197.71 558.78 142.97 519.01 136.13 514.04C132.46 511.38 131.65 506.25 134.31 502.57C136.36 499.75 139.89 498.63 143.09 499.49C152.89 506.62 187.23 531.56 192.14 535.13C193.43 536.07 195.25 535.78 196.19 534.48C197.14 533.19 196.85 531.37 195.55 530.43Z" id="h13AfpJMZ3"></path></defs><g><g><g><use xlink:href="#bzz2drn1N" opacity="1" fill="#000000" fill-opacity="0.66"></use></g><g><use xlink:href="#c1OFhmexG" opacity="1" fill="#feffd9" fill-opacity="1"></use><g><use xlink:href="#c1OFhmexG" opacity="1" fill-opacity="0" stroke="#000000" stroke-width="1" stroke-opacity="0"></use></g></g><g><use xlink:href="#g20cuyht1j" opacity="1" fill="#000000" fill-opacity="0"></use><g><use xlink:href="#g20cuyht1j" opacity="1" fill-opacity="0" stroke="#b82d56" stroke-width="3" stroke-opacity="0"></use></g></g><g><use xlink:href="#aW7OUc58a" opacity="1" fill="#000000" fill-opacity="0"></use><g><use xlink:href="#aW7OUc58a" opacity="1" fill-opacity="0" stroke="#feffd9" stroke-width="7" stroke-opacity="1"></use></g></g><g><use xlink:href="#c1bB5PLRHN" opacity="1" fill="#a03d44" fill-opacity="0"></use><g><use xlink:href="#c1bB5PLRHN" opacity="1" fill-opacity="0" stroke="#feffd9" stroke-width="7" stroke-opacity="1"></use></g></g><g><use xlink:href="#cntYTbbPC" opacity="1" fill="#feffd9" fill-opacity="1"></use><g><use xlink:href="#cntYTbbPC" opacity="1" fill-opacity="0" stroke="#000000" stroke-width="1" stroke-opacity="0"></use></g></g><g><use xlink:href="#a6zc6kYYDi" opacity="1" fill="#feffd9" fill-opacity="0.95"></use><g><use xlink:href="#a6zc6kYYDi" opacity="1" fill-opacity="0" stroke="#000000" stroke-width="1" stroke-opacity="0"></use></g></g><g><use xlink:href="#b8ByV8ac3" opacity="1" fill="#000000" fill-opacity="0"></use><g><use xlink:href="#b8ByV8ac3" opacity="1" fill-opacity="0" stroke="#feffd9" stroke-width="7" stroke-opacity="1"></use></g></g><g><use xlink:href="#b1159fGBv0" opacity="1" fill="#a03d44" fill-opacity="0"></use><g><use xlink:href="#b1159fGBv0" opacity="1" fill-opacity="0" stroke="#000000" stroke-width="1" stroke-opacity="0"></use></g></g><g><use xlink:href="#bIvxTvG97" opacity="1" fill="#feffd9" fill-opacity="1"></use><g><use xlink:href="#bIvxTvG97" opacity="1" fill-opacity="0" stroke="#000000" stroke-width="1" stroke-opacity="0"></use></g></g><g><use xlink:href="#a2NYfWfO1g" opacity="1" fill="#000000" fill-opacity="0"></use><g><use xlink:href="#a2NYfWfO1g" opacity="1" fill-opacity="0" stroke="#feffd9" stroke-width="7" stroke-opacity="1"></use></g></g><g><use xlink:href="#e3jJraXFv" opacity="1" fill="#a03d44" fill-opacity="0"></use><g><use xlink:href="#e3jJraXFv" opacity="1" fill-opacity="0" stroke="#000000" stroke-width="1" stroke-opacity="0"></use></g></g><g><use xlink:href="#a2EC9lBYBK" opacity="1" fill="#000000" fill-opacity="0"></use><g><use xlink:href="#a2EC9lBYBK" opacity="1" fill-opacity="0" stroke="#feffd9" stroke-width="7" stroke-opacity="1"></use></g></g><g><use xlink:href="#h13AfpJMZ3" opacity="1" fill="#feffd9" fill-opacity="1"></use><g><use xlink:href="#h13AfpJMZ3" opacity="1" fill-opacity="0" stroke="#feffd9" stroke-width="1" stroke-opacity="1"></use></g></g></g></g></svg>