<?xml version="1.0" encoding="UTF-8" standalone="no"?>
<!DOCTYPE svg PUBLIC "-//W3C//DTD SVG 1.1//EN" "http://www.w3.org/Graphics/SVG/1.1/DTD/svg11.dtd">
<svg version="1.1" xmlns="http://www.w3.org/2000/svg" xmlns:xlink="http://www.w3.org/1999/xlink" preserveAspectRatio="xMidYMid meet" viewBox="0 0 606 606" width="606" height="606"><defs><path d="M351.91 40.28C351.96 39.9 352.39 36.88 352.45 36.51C352.53 35.86 352.58 35.22 352.58 34.59C352.58 27.94 347.69 22.15 340.93 21.2C340.29 21.11 339.65 21.07 339.02 21.07C332.37 21.07 326.59 25.95 325.63 32.72C325.05 36.61 322.16 56.05 316.95 91.04C306.25 53.22 300.3 32.21 299.11 28.01C297.49 22 292.03 18 286.04 18C284.88 18 283.69 18.15 282.52 18.47C276.48 20.09 272.49 25.56 272.49 31.55C272.49 31.95 272.54 32.37 272.57 32.78C270.89 32.06 269.08 31.62 267.2 31.62C266.03 31.62 264.85 31.76 263.67 32.09C257.63 33.71 253.64 39.17 253.64 45.16C253.64 46.32 253.79 47.5 254.1 48.68C254.92 52.01 261.42 78.68 262.23 82.01C260.64 82.29 258.96 82.81 257.15 83.63C256.22 84.06 255.6 84.95 255.52 85.97C255.52 85.97 255.51 86.06 255.46 86.4C255.13 88.75 253.07 100.1 241.96 114.32C241.53 114.88 241.32 115.58 241.38 116.28C241.4 116.4 242.83 133.82 248.59 151.49C251.47 160.33 255.43 169.25 261.05 176.16C266.6 183.04 274.12 188 283.54 188C283.55 188 283.59 188 283.6 188C283.78 187.99 283.87 187.99 283.89 187.99C288.72 187.99 327.33 187.99 332.16 187.99C349.33 187.99 363.24 174.08 363.24 156.91C363.24 154.3 363.24 141.26 363.24 117.8C368.08 79.68 370.78 58.5 371.31 54.27C371.4 53.66 371.44 53.03 371.44 52.41C371.43 45.75 366.54 39.96 359.78 39.01C359.15 38.92 358.51 38.87 357.88 38.87C355.76 38.87 353.73 39.38 351.91 40.28ZM357.63 117.43C357.63 118.54 357.63 119.15 357.63 119.28C357.63 141.86 357.63 154.4 357.63 156.91C357.6 170.98 346.23 182.37 332.16 182.39C327.35 182.39 288.8 182.39 283.98 182.39C283.82 182.38 283.66 182.39 283.6 182.39C276.19 182.37 270.38 178.69 265.4 172.62C257.97 163.54 253.21 149.25 250.5 137.3C249.13 131.33 248.25 125.94 247.71 122.05C247.38 119.71 247.18 117.93 247.07 116.89C257.31 103.46 260.13 92.34 260.86 88.17C261.9 87.79 262.79 87.57 263.56 87.46C263.97 87.4 264.37 87.37 264.71 87.37C265.37 87.37 265.91 87.46 266.37 87.61C267.38 87.94 268.14 88.54 268.85 89.52C270.81 92.13 271.32 97.57 271.26 99.97C271.26 100.26 271.26 100.49 271.25 100.68C270.78 101.65 270.36 102.58 269.95 103.47C269.37 104.75 268.86 105.96 268.38 107.13C265.53 114.17 264.53 119.14 264.52 122.81C264.38 129.04 267.93 131.56 268.79 131.75C268.8 131.75 268.89 131.78 269.04 131.84C272.82 132.96 274.91 133.58 275.33 133.7C275.4 133.72 275.46 133.72 275.53 133.73C275.58 133.75 275.64 133.75 275.69 133.76C275.82 133.79 275.96 133.79 276.1 133.81C276.26 133.82 276.4 133.87 276.56 133.86C277.4 133.88 281.58 134.03 286.15 135.48C291.16 137.06 296.38 140.05 298.98 145.69C299.46 146.71 300.46 147.32 301.52 147.32C301.92 147.32 302.32 147.24 302.7 147.06C304.1 146.41 304.72 144.75 304.07 143.34C300.52 135.68 293.63 131.94 287.84 130.12C284.02 128.93 280.6 128.5 278.5 128.35C278.38 127.7 277.8 124.49 276.77 118.71C276.69 118.3 276.1 114.98 276.03 114.56C275.23 110.13 274.79 107.66 274.7 107.17C274.67 107.05 274.64 106.92 274.61 106.8C274.75 106.47 274.9 106.13 275.06 105.79C275.52 104.77 276.01 103.72 276.55 102.62C276.71 102.28 276.8 101.94 276.83 101.57C276.83 101.52 276.87 100.92 276.87 99.96C276.82 97.08 276.67 91.01 273.41 86.27C272.2 84.54 270.41 83 268.08 82.27C268.07 82.26 268.06 82.26 268.06 82.26C267.21 78.76 260.39 50.78 259.54 47.28C259.33 46.52 259.25 45.84 259.25 45.16C259.25 41.67 261.59 38.45 265.13 37.51C265.82 37.32 266.51 37.23 267.2 37.23C270.69 37.23 273.9 39.57 274.84 43.11C275.66 46.01 279.75 60.49 287.12 86.55C290.21 97.78 291.93 104.03 292.27 105.27C292.61 106.52 293.74 107.33 294.98 107.33C295.22 107.33 295.47 107.3 295.72 107.23C297.21 106.82 298.09 105.27 297.68 103.78C297.6 103.49 296.96 101.17 296.88 100.88C296.88 100.63 296.86 100.37 296.79 100.12C296.79 100.12 296.79 100.12 296.78 100.12C296.36 98.62 292.97 86.61 292.55 85.11C284.04 54.2 279.32 37.02 278.37 33.59C278.19 32.91 278.1 32.22 278.1 31.55C278.1 28.05 280.44 24.83 283.98 23.89C284.67 23.7 285.36 23.61 286.04 23.61C289.53 23.62 292.75 25.95 293.7 29.49C295.77 36.82 312.35 95.37 314.42 102.69C314.82 104.1 316.23 104.94 317.63 104.67C317.68 104.68 317.71 104.7 317.76 104.7C317.89 104.72 318.04 104.74 318.17 104.74C319.54 104.74 320.74 103.73 320.95 102.34C320.95 102.34 320.95 102.34 320.95 102.34C327.09 61.05 330.5 38.12 331.19 33.53C331.74 29.54 335.14 26.68 339.02 26.68C339.39 26.68 339.76 26.7 340.14 26.76C344.11 27.31 346.97 30.71 346.97 34.59C346.97 34.95 346.94 35.33 346.89 35.73C346.71 36.96 345.31 46.69 345.14 47.91C344.84 48.75 344.61 49.63 344.49 50.54C344.14 53.09 342.39 65.84 339.24 88.81C338.61 93.18 338.26 95.61 338.19 96.09C338.16 96.27 338.16 96.45 338.17 96.63C338.09 97.19 337.47 101.71 337.39 102.27C337.18 103.81 338.25 105.22 339.79 105.43C341.32 105.65 342.74 104.57 342.95 103.04C343.07 102.16 343.67 97.79 344.75 89.92C348.25 65.61 350.2 52.1 350.59 49.4C351.79 46.47 354.66 44.48 357.88 44.48C358.25 44.48 358.62 44.51 358.99 44.56C362.96 45.12 365.83 48.52 365.83 52.41C365.83 52.78 365.8 53.15 365.75 53.53C364.86 60.57 362.62 78.16 359.05 106.3C358.86 107.78 358.39 111.49 357.63 117.43ZM271.06 126.58C270.82 126.35 270.18 125.53 270.14 122.81C270.13 121.48 270.32 119.73 270.85 117.49C271.08 118.76 271.65 121.94 272.56 127.02C271.66 126.76 271.16 126.61 271.06 126.58Z" id="egOHsMFa6"></path><path d="M-47.43 -63.06C-47.37 -63.51 -46.86 -67.06 -46.8 -67.5C-46.7 -68.26 -46.64 -69.01 -46.64 -69.75C-46.64 -77.58 -52.4 -84.38 -60.35 -85.51C-61.11 -85.61 -61.86 -85.66 -62.6 -85.66C-70.43 -85.66 -77.23 -79.91 -78.35 -71.95C-79.04 -67.38 -82.44 -44.51 -88.57 -3.34C-101.17 -47.83 -108.17 -72.56 -109.57 -77.5C-111.48 -84.57 -117.9 -89.27 -124.95 -89.27C-126.32 -89.27 -127.71 -89.09 -129.09 -88.71C-136.2 -86.81 -140.9 -80.38 -140.9 -73.33C-140.9 -72.86 -140.84 -72.36 -140.8 -71.88C-142.78 -72.73 -144.91 -73.25 -147.13 -73.25C-148.5 -73.25 -149.89 -73.08 -151.28 -72.7C-158.38 -70.78 -163.08 -64.37 -163.08 -57.32C-163.08 -55.96 -162.91 -54.56 -162.53 -53.18C-161.58 -49.26 -153.93 -17.88 -152.97 -13.96C-154.84 -13.63 -156.82 -13.02 -158.95 -12.06C-160.04 -11.55 -160.77 -10.51 -160.87 -9.31C-160.87 -9.31 -160.88 -9.2 -160.93 -8.8C-161.32 -6.03 -163.75 7.32 -176.82 24.05C-177.33 24.7 -177.58 25.53 -177.51 26.36C-177.48 26.49 -175.81 46.99 -169.03 67.78C-165.63 78.18 -160.97 88.67 -154.36 96.8C-147.83 104.89 -138.98 110.73 -127.89 110.73C-127.88 110.73 -127.83 110.73 -127.83 110.73C-127.61 110.72 -127.5 110.72 -127.48 110.72C-121.79 110.72 -76.35 110.72 -70.67 110.72C-50.47 110.72 -34.1 94.35 -34.1 74.15C-34.1 71.08 -34.1 55.74 -34.1 28.14C-28.4 -16.71 -25.23 -41.62 -24.6 -46.6C-24.5 -47.32 -24.45 -48.06 -24.45 -48.79C-24.45 -56.63 -30.21 -63.43 -38.17 -64.56C-38.91 -64.66 -39.66 -64.71 -40.4 -64.71C-42.9 -64.71 -45.29 -64.12 -47.43 -63.06ZM-40.7 27.7C-40.7 29.01 -40.7 29.73 -40.7 29.88C-40.7 56.44 -40.7 71.2 -40.7 74.15C-40.73 90.71 -54.12 104.1 -70.67 104.13C-76.34 104.13 -121.7 104.13 -127.38 104.13C-127.56 104.12 -127.75 104.13 -127.83 104.13C-136.54 104.1 -143.38 99.78 -149.24 92.64C-157.98 81.96 -163.58 65.14 -166.78 51.09C-168.38 44.06 -169.42 37.72 -170.06 33.14C-170.44 30.39 -170.68 28.29 -170.81 27.07C-158.76 11.27 -155.44 -1.81 -154.58 -6.72C-153.36 -7.17 -152.31 -7.42 -151.4 -7.55C-150.92 -7.62 -150.45 -7.66 -150.05 -7.66C-149.28 -7.66 -148.64 -7.55 -148.1 -7.38C-146.9 -6.98 -146.02 -6.28 -145.18 -5.13C-142.88 -2.06 -142.28 4.34 -142.34 7.17C-142.34 7.5 -142.35 7.78 -142.35 8C-142.9 9.14 -143.4 10.23 -143.88 11.29C-144.57 12.79 -145.17 14.22 -145.73 15.59C-149.09 23.87 -150.26 29.72 -150.28 34.03C-150.44 41.37 -146.26 44.33 -145.25 44.55C-145.23 44.56 -145.13 44.59 -144.95 44.66C-140.51 45.97 -138.05 46.7 -137.55 46.85C-137.48 46.87 -137.4 46.87 -137.32 46.89C-137.25 46.9 -137.19 46.91 -137.13 46.92C-136.98 46.96 -136.81 46.96 -136.65 46.97C-136.46 46.99 -136.29 47.05 -136.1 47.04C-135.11 47.06 -130.2 47.24 -124.82 48.94C-118.93 50.8 -112.78 54.32 -109.73 60.95C-109.16 62.16 -107.98 62.87 -106.73 62.87C-106.26 62.87 -105.79 62.77 -105.35 62.57C-103.69 61.8 -102.97 59.84 -103.73 58.19C-107.9 49.18 -116.02 44.78 -122.83 42.64C-127.33 41.23 -131.35 40.73 -133.83 40.55C-133.96 39.79 -134.64 36.02 -135.86 29.22C-135.95 28.73 -136.65 24.82 -136.73 24.33C-137.68 19.12 -138.19 16.22 -138.3 15.64C-138.33 15.49 -138.36 15.34 -138.4 15.2C-138.23 14.81 -138.06 14.42 -137.88 14.02C-137.33 12.81 -136.75 11.58 -136.12 10.28C-135.93 9.89 -135.82 9.48 -135.79 9.04C-135.78 8.99 -135.74 8.29 -135.74 7.16C-135.8 3.77 -135.98 -3.38 -139.81 -8.96C-141.24 -10.99 -143.35 -12.8 -146.09 -13.66C-146.1 -13.67 -146.1 -13.67 -146.11 -13.67C-147.11 -17.78 -155.13 -50.71 -156.13 -54.82C-156.38 -55.71 -156.48 -56.52 -156.48 -57.31C-156.48 -61.42 -153.73 -65.21 -149.55 -66.32C-148.74 -66.54 -147.93 -66.65 -147.13 -66.65C-143.02 -66.65 -139.24 -63.9 -138.13 -59.73C-137.16 -56.32 -132.35 -39.28 -123.68 -8.62C-120.04 4.59 -118.02 11.94 -117.62 13.4C-117.21 14.87 -115.88 15.82 -114.43 15.82C-114.15 15.82 -113.85 15.79 -113.56 15.71C-111.8 15.22 -110.77 13.4 -111.25 11.65C-111.35 11.31 -112.1 8.58 -112.19 8.24C-112.19 7.94 -112.21 7.64 -112.3 7.34C-112.3 7.34 -112.3 7.34 -112.3 7.34C-112.8 5.57 -116.79 -8.55 -117.29 -10.31C-127.3 -46.68 -132.86 -66.89 -133.98 -70.93C-134.19 -71.73 -134.3 -72.54 -134.3 -73.33C-134.3 -77.45 -131.54 -81.23 -127.38 -82.34C-126.56 -82.56 -125.75 -82.67 -124.95 -82.67C-120.84 -82.66 -117.05 -79.92 -115.94 -75.75C-113.5 -67.13 -93.98 1.76 -91.55 10.37C-91.08 12.02 -89.42 13.01 -87.77 12.69C-87.72 12.71 -87.68 12.73 -87.63 12.73C-87.46 12.76 -87.29 12.77 -87.13 12.77C-85.53 12.77 -84.11 11.59 -83.86 9.96C-83.86 9.96 -83.86 9.96 -83.87 9.95C-76.64 -38.62 -72.63 -65.6 -71.82 -71C-71.17 -75.7 -67.16 -79.06 -62.6 -79.06C-62.16 -79.06 -61.73 -79.03 -61.28 -78.97C-56.61 -78.32 -53.25 -74.31 -53.25 -69.75C-53.25 -69.33 -53.28 -68.88 -53.34 -68.41C-53.55 -66.97 -55.2 -55.51 -55.4 -54.08C-55.75 -53.1 -56.02 -52.06 -56.16 -50.99C-56.58 -47.98 -58.63 -32.98 -62.34 -5.97C-63.08 -0.83 -63.5 2.03 -63.58 2.6C-63.61 2.82 -63.62 3.02 -63.6 3.23C-63.7 3.89 -64.43 9.21 -64.52 9.87C-64.77 11.69 -63.5 13.34 -61.7 13.59C-59.9 13.84 -58.23 12.58 -57.98 10.77C-57.83 9.74 -57.13 4.6 -55.86 -4.66C-51.73 -33.26 -49.45 -49.15 -48.99 -52.33C-47.57 -55.78 -44.2 -58.11 -40.4 -58.11C-39.98 -58.11 -39.54 -58.08 -39.1 -58.02C-34.43 -57.37 -31.05 -53.36 -31.05 -48.79C-31.05 -48.35 -31.08 -47.91 -31.15 -47.47C-32.2 -39.19 -34.83 -18.5 -39.03 14.61C-39.25 16.35 -39.81 20.72 -40.7 27.7ZM-142.58 38.47C-142.85 38.2 -143.62 37.24 -143.66 34.03C-143.67 32.47 -143.45 30.42 -142.83 27.77C-142.55 29.27 -141.88 33.01 -140.81 38.99C-141.87 38.68 -142.46 38.51 -142.58 38.47Z" id="b30JPeo9"></path><path d="M396.71 103C396.71 152.67 356.38 193 306.71 193C257.03 193 216.71 152.67 216.71 103C216.71 53.33 257.03 13 306.71 13C356.38 13 396.71 53.33 396.71 103Z" id="a36n8mP2OW"></path><path d="M546.99 188.71C545.88 180.36 538.75 173.9 530.09 173.9C526.36 173.9 522.93 175.11 520.12 177.14C518.11 169.95 511.53 164.67 503.7 164.67C495.56 164.67 488.76 170.38 487.06 178.03C486.91 178.9 486.99 178.71 486.96 179.1C486.93 180.01 486.91 182.02 486.9 184.81C484.16 182.94 480.88 181.82 477.32 181.82C469.17 181.83 462.37 187.53 460.68 195.17C460.67 195.22 460.65 195.48 460.6 195.93C460.6 202.21 460.6 205.7 460.6 206.4C458.42 203.3 454.57 200.81 449.76 200.87C446.87 200.87 443.73 201.65 440.24 203.24C439.07 203.78 438.28 204.9 438.18 206.18C438.18 206.18 438.17 206.3 438.11 206.72C437.7 209.69 435.1 223.97 421.11 241.89C420.55 242.59 420.29 243.47 420.37 244.36C420.39 244.51 422.19 266.29 429.45 288.37C433.09 299.42 438.07 310.57 445.14 319.21C452.16 327.83 461.65 334.03 473.54 334.01C473.77 334 473.89 334 473.93 334C474.02 334 474.76 334.01 474.85 334.01C477.14 334.44 479.51 334.67 481.94 334.66C487.21 334.66 529.44 334.66 534.71 334.67C556.33 334.66 573.86 317.13 573.86 295.5C573.84 289.33 573.74 258.44 573.54 202.83C568.45 191.46 562.76 185.77 556.48 185.77C552.95 185.77 549.71 186.88 546.99 188.71ZM556.48 192.84C562 192.85 566.46 197.32 566.47 202.84C566.47 205.15 566.47 223.62 566.47 225.92C566.47 226.55 566.4 227.17 566.29 227.8C566.29 227.8 566.29 227.8 566.29 227.81C565.41 232.41 561.35 235.91 556.49 235.9C553.66 235.91 551.12 234.73 549.3 232.84C548.51 232.02 547.87 231.04 547.4 229.98C547.31 229.79 547.24 229.61 547.16 229.41C547.11 229.27 547.03 229.13 546.99 228.99C546.99 228.99 546.99 228.99 546.99 228.99C546.66 228 546.49 226.98 546.49 225.92C546.49 223.61 546.49 205.15 546.49 202.83C546.49 202.2 546.56 201.55 546.68 200.9C546.76 200.53 546.86 200.15 546.99 199.75C547.03 199.6 547.11 199.48 547.16 199.33C548.58 195.55 552.2 192.84 556.48 192.84C556.48 192.84 556.48 192.84 556.48 192.84ZM540.09 190.96C540.09 195.51 540.09 231.92 540.09 236.47C540.08 239.92 538.34 242.95 535.68 244.76C534.09 245.82 532.16 246.46 530.09 246.46C526.73 246.47 523.75 244.79 521.94 242.22C521.42 241.48 521.01 240.67 520.7 239.8C520.67 239.71 520.63 239.63 520.59 239.54C520.28 238.57 520.11 237.55 520.1 236.48C520.1 231.93 520.11 195.52 520.11 190.97C520.11 189.89 520.28 188.87 520.6 187.88C520.63 187.77 520.69 187.68 520.72 187.57C522.11 183.74 525.77 180.97 530.07 180.97C530.08 180.97 530.09 180.97 530.09 180.97C535.61 180.98 540.08 185.44 540.09 190.96ZM494.02 179.31C495.11 174.96 499.04 171.73 503.71 171.73C509.23 171.74 513.69 176.2 513.7 181.71C513.7 181.86 513.58 238.41 513.61 239.28C513.63 239.72 513.64 240.07 513.66 240.37C513.68 240.5 513.68 240.58 513.69 240.67C513.68 240.73 513.67 240.79 513.66 240.85C513.65 241.26 513.59 241.65 513.52 242.06C513.49 242.24 513.49 242.44 513.44 242.62C513.34 243.07 513.19 243.51 513.03 243.93C512.96 244.11 512.92 244.29 512.84 244.46C512.66 244.87 512.44 245.24 512.2 245.61C512.1 245.78 512.02 245.96 511.91 246.12C511.67 246.47 511.39 246.77 511.11 247.08C510.97 247.24 510.85 247.42 510.69 247.57C510.4 247.85 510.09 248.08 509.78 248.32C509.58 248.46 509.41 248.63 509.22 248.77C508.9 248.97 508.55 249.13 508.21 249.31C507.98 249.42 507.77 249.56 507.54 249.67C507.17 249.82 506.77 249.91 506.39 250.02C506.15 250.09 505.92 250.18 505.69 250.23C505.09 250.35 504.47 250.41 503.85 250.42C503.8 250.42 503.76 250.43 503.72 250.43C503.34 250.43 502.99 250.36 502.63 250.32C497.71 249.76 494.09 245.69 494.05 240.44C494.05 240.37 494 181.07 494 180.25C494.02 179.85 494.02 179.53 494.02 179.32C494.02 179.32 494.02 179.31 494.02 179.31ZM486.65 195.31C486.65 199.11 486.65 229.56 486.65 233.36C486.58 233.56 486.5 233.76 486.41 233.96C486.31 234.17 486.22 234.38 486.11 234.58C485.99 234.83 485.83 235.05 485.69 235.28C485.56 235.48 485.44 235.68 485.29 235.87C485.14 236.08 484.95 236.28 484.78 236.47C484.62 236.65 484.47 236.84 484.29 237.01C484.11 237.19 483.9 237.36 483.7 237.53C483.51 237.69 483.34 237.85 483.14 237.99C482.93 238.14 482.69 238.27 482.46 238.41C482.26 238.54 482.06 238.67 481.85 238.78C481.6 238.91 481.34 239.01 481.07 239.11C480.86 239.2 480.66 239.3 480.44 239.37C480.13 239.47 479.82 239.53 479.5 239.6C479.31 239.65 479.12 239.71 478.93 239.74C478.43 239.82 477.92 239.86 477.41 239.86C477.38 239.86 477.36 239.87 477.33 239.87C476.74 239.87 476.16 239.82 475.61 239.72C475.44 239.69 475.27 239.63 475.11 239.58C474.73 239.5 474.34 239.41 473.98 239.29C473.77 239.21 473.57 239.1 473.37 239.01C473.06 238.88 472.76 238.77 472.47 238.6C472.26 238.48 472.06 238.33 471.85 238.19C471.61 238.02 471.35 237.87 471.12 237.69C470.91 237.53 470.73 237.33 470.54 237.14C470.34 236.96 470.13 236.77 469.94 236.57C469.75 236.36 469.6 236.14 469.43 235.92C469.27 235.71 469.09 235.5 468.94 235.26C468.8 235.03 468.67 234.78 468.55 234.53C468.42 234.29 468.28 234.06 468.17 233.81C468.06 233.55 467.98 233.28 467.89 233.02C467.82 232.79 467.73 232.56 467.67 232.31C467.67 229.92 467.67 217.93 467.67 196.36C467.67 196.36 467.67 196.36 467.67 196.36C471.01 191.37 474.23 188.88 477.32 188.88C481.58 188.88 485.21 191.56 486.65 195.31ZM457.75 257.31C457.45 257.02 456.64 255.99 456.58 252.55C456.57 249.36 457.48 244.14 460.6 236.25C460.6 239.17 460.6 246.47 460.6 258.16C458.89 257.65 457.94 257.37 457.75 257.31ZM481.94 327.59C479.87 327.59 477.85 327.4 475.88 327.01C475.84 327.01 475.62 326.99 475.25 326.95C474.54 326.95 474.16 326.94 474.08 326.94C474 326.93 473.92 326.93 473.86 326.93C473.72 326.93 473.62 326.94 473.55 326.94C464.21 326.92 456.89 322.31 450.62 314.73C441.27 303.39 435.28 285.53 431.86 270.6C430.14 263.14 429.03 256.4 428.35 251.55C427.94 248.63 427.69 246.42 427.55 245.11C440.45 228.2 444 214.2 444.93 208.95C446.92 208.2 448.53 207.93 449.77 207.93C452.4 208 453.63 208.89 454.96 210.64C457.44 213.94 458.08 220.78 458.01 223.8C458.01 224.17 458.01 224.47 458 224.71C451.55 238.06 449.54 246.64 449.52 252.55C449.34 260.42 453.83 263.59 454.91 263.83C455.74 264.07 462.32 266.03 463.14 266.28C463.66 266.43 470.87 266.61 476.48 268.36C482.87 270.36 489.62 274.16 492.93 281.38C493.52 282.66 494.8 283.43 496.13 283.43C496.63 283.43 497.13 283.33 497.61 283.1C499.38 282.29 500.15 280.19 499.34 278.41C494.8 268.63 485.94 263.91 478.57 261.61C474.22 260.26 470.28 259.7 467.67 259.46C467.67 257.91 467.67 245.48 467.67 243.92C467.9 244.09 468.16 244.21 468.41 244.36C468.71 244.55 469.02 244.73 469.34 244.9C469.83 245.17 470.34 245.39 470.87 245.61C471.18 245.75 471.5 245.88 471.82 245.99C472.42 246.19 473.04 246.35 473.66 246.49C473.94 246.55 474.2 246.63 474.49 246.68C475.41 246.83 476.36 246.93 477.32 246.93C477.32 246.93 477.32 246.93 477.32 246.93C477.39 246.93 477.46 246.92 477.52 246.92C478.38 246.9 479.22 246.84 480.05 246.7C480.33 246.66 480.59 246.57 480.86 246.52C481.46 246.39 482.06 246.26 482.63 246.07C482.94 245.98 483.24 245.82 483.55 245.71C484.06 245.51 484.56 245.31 485.04 245.07C485.35 244.91 485.65 244.71 485.95 244.54C486.31 244.33 486.68 244.14 487.02 243.91C488.39 250.52 493.59 255.71 500.19 257.1C500.24 257.11 500.28 257.12 500.33 257.13C500.81 257.23 501.31 257.3 501.81 257.36C501.88 257.37 501.94 257.39 502.02 257.39C502.57 257.45 503.14 257.48 503.72 257.48C503.76 257.48 503.81 257.47 503.85 257.47C504.51 257.47 505.15 257.42 505.78 257.34C506.01 257.31 506.22 257.28 506.44 257.24C506.93 257.16 507.41 257.07 507.88 256.94C508.09 256.9 508.29 256.85 508.48 256.79C509.12 256.61 509.75 256.4 510.35 256.14C510.43 256.11 510.5 256.06 510.57 256.03C511.12 255.79 511.64 255.53 512.15 255.24C512.32 255.14 512.49 255.04 512.64 254.94C513.09 254.67 513.51 254.38 513.92 254.07C514.05 253.98 514.17 253.89 514.29 253.8C514.82 253.38 515.31 252.94 515.79 252.46C515.84 252.42 515.88 252.36 515.94 252.31C516.35 251.88 516.75 251.43 517.11 250.96C517.21 250.83 517.31 250.7 517.4 250.57C517.75 250.12 518.06 249.64 518.36 249.14C518.4 249.08 518.45 249.02 518.49 248.95C518.93 249.36 519.39 249.74 519.86 250.1C519.96 250.17 520.06 250.24 520.16 250.31C520.78 250.76 521.43 251.17 522.11 251.53C522.15 251.55 522.19 251.58 522.24 251.61C522.94 251.97 523.68 252.28 524.43 252.54C524.58 252.6 524.71 252.65 524.85 252.69C525.59 252.93 526.36 253.13 527.14 253.26C527.29 253.28 527.44 253.3 527.59 253.33C528.39 253.45 529.2 253.52 530.04 253.53C530.06 253.53 530.08 253.53 530.1 253.53C530.23 253.53 530.34 253.51 530.46 253.51C530.88 253.5 531.31 253.48 531.72 253.45C531.95 253.42 532.17 253.39 532.38 253.36C532.7 253.31 533.01 253.28 533.32 253.22C533.55 253.17 533.78 253.11 534.02 253.06C534.29 253 534.58 252.93 534.87 252.85C535.1 252.77 535.32 252.7 535.55 252.63C535.82 252.54 536.09 252.43 536.36 252.33C536.58 252.24 536.8 252.16 537.01 252.06C537.28 251.94 537.55 251.81 537.81 251.68C538.01 251.58 538.21 251.48 538.41 251.37C538.68 251.21 538.95 251.04 539.22 250.87C539.38 250.77 539.56 250.67 539.72 250.55C540.1 250.29 540.49 250.01 540.84 249.72C540.96 249.62 541.07 249.52 541.18 249.42C541.49 249.16 541.78 248.9 542.07 248.62C542.22 248.48 542.34 248.33 542.48 248.17C542.7 247.95 542.91 247.72 543.11 247.49C543.26 247.32 543.39 247.14 543.53 246.97C543.71 246.73 543.89 246.5 544.06 246.27C544.19 246.08 544.32 245.89 544.44 245.69C544.59 245.45 544.75 245.21 544.89 244.96C545.01 244.76 545.12 244.55 545.23 244.35C545.37 244.09 545.49 243.82 545.61 243.55C545.71 243.35 545.8 243.14 545.89 242.94C546.01 242.64 546.12 242.33 546.22 242.02C546.28 241.84 546.36 241.65 546.42 241.45C546.57 240.97 546.7 240.47 546.8 239.96C547.14 240.2 547.52 240.38 547.88 240.59C548.18 240.77 548.47 240.96 548.78 241.12C549.25 241.37 549.75 241.56 550.26 241.76C550.57 241.88 550.86 242.02 551.19 242.13C551.75 242.31 552.34 242.43 552.93 242.57C553.21 242.62 553.48 242.72 553.77 242.76C554.65 242.9 555.56 242.98 556.49 242.98C557.41 242.98 558.3 242.9 559.18 242.75C559.25 242.75 559.33 242.74 559.4 242.72C560.24 242.58 561.05 242.36 561.83 242.1C561.94 242.07 562.05 242.05 562.14 242.01C562.91 241.75 563.64 241.41 564.35 241.05C564.46 240.99 564.56 240.93 564.67 240.88C565.37 240.5 566.03 240.06 566.66 239.6C566.7 239.56 566.76 239.54 566.8 239.5C566.8 243.24 566.8 261.91 566.8 295.51C566.8 295.51 566.8 295.51 566.8 295.51C557.22 316.88 546.53 327.57 534.71 327.59C529.44 327.59 487.22 327.59 481.94 327.59Z" id="crHKL1DmO"></path><path d="M1000.01 535.58C998.9 527.23 991.77 520.78 983.12 520.77C979.38 520.78 975.95 521.98 973.14 524.01C971.13 516.82 964.55 511.54 956.72 511.54C948.59 511.55 941.78 517.25 940.08 524.9C939.94 525.77 940.01 525.58 939.98 525.97C939.95 526.88 939.93 528.89 939.92 531.68C937.19 529.81 933.9 528.69 930.35 528.69C922.19 528.7 915.4 534.4 913.7 542.05C913.7 542.09 913.67 542.35 913.62 542.8C913.62 549.09 913.62 552.58 913.62 553.27C911.44 550.17 907.6 547.68 902.78 547.74C899.89 547.74 896.75 548.52 893.26 550.11C892.09 550.65 891.3 551.77 891.2 553.05C891.2 553.05 891.2 553.18 891.13 553.6C890.72 556.56 888.12 570.85 874.13 588.76C873.58 589.46 873.31 590.34 873.39 591.23C873.41 591.38 875.21 613.16 882.47 635.24C886.11 646.29 891.09 657.44 898.16 666.09C905.18 674.7 914.67 680.9 926.56 680.88C926.79 680.87 926.91 680.87 926.95 680.87C927.04 680.87 927.78 680.88 927.87 680.88C930.16 681.31 932.53 681.54 934.96 681.53C940.23 681.53 982.46 681.53 987.74 681.54C1009.36 681.53 1026.89 664 1026.89 642.38C1026.87 636.2 1026.76 605.31 1026.56 549.71C1021.47 538.33 1015.78 532.64 1009.5 532.64C1005.97 532.64 1002.73 533.75 1000.01 535.58ZM1009.5 539.71C1015.02 539.72 1019.48 544.19 1019.49 549.71C1019.49 552.02 1019.49 570.49 1019.49 572.79C1019.49 573.42 1019.43 574.04 1019.31 574.68C1019.31 574.68 1019.31 574.68 1019.31 574.68C1018.43 579.28 1014.38 582.79 1009.51 582.77C1006.68 582.78 1004.14 581.6 1002.33 579.71C1001.53 578.89 1000.89 577.92 1000.42 576.85C1000.34 576.67 1000.26 576.48 1000.18 576.28C1000.13 576.14 1000.05 576.01 1000.01 575.87C1000.01 575.86 1000.01 575.86 1000.01 575.86C999.69 574.88 999.52 573.86 999.51 572.79C999.51 570.48 999.52 552.02 999.52 549.71C999.51 549.07 999.58 548.42 999.7 547.77C999.78 547.4 999.88 547.02 1000.01 546.62C1000.05 546.48 1000.13 546.35 1000.18 546.2C1001.6 542.42 1005.22 539.71 1009.5 539.71C1009.5 539.71 1009.5 539.71 1009.5 539.71ZM993.11 537.83C993.11 542.39 993.11 578.8 993.11 583.34C993.1 586.79 991.36 589.83 988.7 591.63C987.11 592.7 985.19 593.33 983.12 593.33C979.75 593.34 976.77 591.66 974.96 589.09C974.44 588.36 974.03 587.54 973.73 586.68C973.69 586.58 973.65 586.5 973.61 586.41C973.3 585.44 973.13 584.42 973.13 583.36C973.13 578.8 973.13 542.39 973.13 537.84C973.13 536.76 973.3 535.74 973.62 534.76C973.65 534.65 973.71 534.55 973.74 534.45C975.13 530.61 978.79 527.84 983.09 527.84C983.1 527.84 983.12 527.84 983.12 527.84C988.63 527.85 993.1 532.32 993.11 537.83ZM947.04 526.18C948.13 521.83 952.06 518.6 956.73 518.6C962.25 518.62 966.71 523.07 966.72 528.58C966.72 528.73 966.61 585.28 966.64 586.15C966.65 586.59 966.66 586.94 966.68 587.25C966.7 587.37 966.7 587.45 966.71 587.54C966.7 587.6 966.69 587.66 966.69 587.72C966.67 588.13 966.61 588.53 966.55 588.93C966.52 589.12 966.51 589.31 966.47 589.49C966.36 589.95 966.21 590.38 966.05 590.8C965.98 590.98 965.94 591.16 965.87 591.33C965.68 591.74 965.46 592.11 965.22 592.48C965.13 592.65 965.04 592.84 964.93 592.99C964.69 593.34 964.42 593.64 964.14 593.95C963.99 594.11 963.87 594.29 963.71 594.44C963.43 594.72 963.11 594.95 962.8 595.19C962.61 595.34 962.44 595.5 962.24 595.64C961.92 595.85 961.57 596 961.23 596.18C961 596.3 960.79 596.44 960.56 596.54C960.2 596.69 959.8 596.78 959.41 596.89C959.17 596.96 958.95 597.05 958.71 597.1C958.11 597.22 957.5 597.28 956.87 597.29C956.82 597.29 956.79 597.3 956.74 597.3C956.37 597.3 956.01 597.23 955.65 597.19C950.73 596.63 947.12 592.56 947.07 587.31C947.07 587.25 947.02 527.95 947.03 527.13C947.04 526.72 947.04 526.4 947.04 526.19C947.04 526.19 947.04 526.18 947.04 526.18ZM939.67 542.18C939.67 545.98 939.67 576.43 939.67 580.24C939.6 580.44 939.52 580.64 939.43 580.83C939.33 581.04 939.24 581.26 939.13 581.46C939.01 581.7 938.86 581.92 938.71 582.15C938.58 582.35 938.46 582.55 938.31 582.74C938.16 582.95 937.98 583.15 937.81 583.34C937.64 583.53 937.49 583.71 937.31 583.88C937.13 584.07 936.93 584.23 936.72 584.4C936.54 584.56 936.36 584.72 936.16 584.86C935.95 585.01 935.71 585.15 935.48 585.29C935.28 585.41 935.09 585.54 934.87 585.65C934.62 585.78 934.36 585.88 934.09 585.98C933.88 586.07 933.68 586.17 933.46 586.24C933.16 586.34 932.84 586.4 932.52 586.48C932.33 586.52 932.14 586.58 931.95 586.61C931.46 586.69 930.95 586.73 930.43 586.74C930.41 586.74 930.38 586.74 930.35 586.74C929.76 586.74 929.19 586.69 928.63 586.59C928.46 586.56 928.29 586.5 928.13 586.46C927.75 586.37 927.37 586.29 927 586.16C926.79 586.09 926.59 585.97 926.39 585.89C926.08 585.75 925.78 585.64 925.5 585.47C925.28 585.35 925.08 585.2 924.87 585.06C924.63 584.9 924.37 584.75 924.14 584.56C923.94 584.4 923.75 584.21 923.56 584.02C923.36 583.83 923.15 583.65 922.96 583.44C922.77 583.23 922.62 583.01 922.45 582.8C922.29 582.58 922.11 582.37 921.96 582.14C921.82 581.9 921.7 581.66 921.57 581.41C921.44 581.16 921.3 580.93 921.19 580.68C921.08 580.42 921 580.15 920.91 579.89C920.84 579.66 920.76 579.43 920.69 579.19C920.69 576.79 920.69 564.81 920.69 543.23C920.69 543.23 920.69 543.23 920.69 543.23C924.03 538.25 927.25 535.75 930.35 535.76C934.61 535.75 938.24 538.43 939.67 542.18ZM910.77 604.19C910.47 603.89 909.66 602.86 909.61 599.42C909.59 596.23 910.5 591.01 913.62 583.12C913.62 586.04 913.62 593.35 913.62 605.03C911.91 604.53 910.96 604.24 910.77 604.19ZM934.96 674.46C932.89 674.46 930.87 674.27 928.9 673.89C928.86 673.88 928.65 673.86 928.27 673.82C927.57 673.82 927.18 673.81 927.1 673.81C927.02 673.81 926.95 673.81 926.88 673.81C926.75 673.81 926.64 673.81 926.57 673.81C917.23 673.79 909.91 669.19 903.64 661.6C894.29 650.26 888.3 632.4 884.88 617.47C883.17 610.01 882.05 603.27 881.37 598.42C880.96 595.51 880.71 593.29 880.57 591.99C893.47 575.08 897.02 561.07 897.95 555.82C899.94 555.08 901.56 554.8 902.79 554.8C905.42 554.87 906.65 555.76 907.98 557.52C910.46 560.81 911.1 567.65 911.03 570.68C911.03 571.05 911.03 571.34 911.02 571.59C904.57 584.93 902.56 593.52 902.54 599.42C902.36 607.29 906.86 610.46 907.94 610.7C908.76 610.94 915.34 612.9 916.16 613.15C916.68 613.3 923.89 613.48 929.5 615.23C935.89 617.23 942.64 621.04 945.95 628.25C946.54 629.53 947.83 630.3 949.16 630.3C949.65 630.3 950.15 630.2 950.63 629.98C952.4 629.16 953.17 627.06 952.36 625.29C947.83 615.5 938.96 610.78 931.6 608.48C927.24 607.13 923.3 606.57 920.69 606.34C920.69 604.78 920.69 592.35 920.69 590.8C920.93 590.96 921.19 591.08 921.43 591.23C921.73 591.42 922.04 591.6 922.36 591.77C922.85 592.04 923.37 592.27 923.89 592.48C924.2 592.62 924.52 592.75 924.85 592.87C925.44 593.07 926.06 593.22 926.69 593.36C926.96 593.42 927.23 593.5 927.51 593.55C928.43 593.7 929.38 593.8 930.35 593.8C930.35 593.8 930.35 593.8 930.35 593.8C930.41 593.8 930.48 593.79 930.54 593.79C931.4 593.78 932.25 593.72 933.07 593.58C933.35 593.53 933.61 593.44 933.88 593.39C934.49 593.26 935.08 593.13 935.66 592.95C935.97 592.85 936.26 592.7 936.57 592.58C937.08 592.39 937.58 592.19 938.06 591.94C938.38 591.79 938.67 591.59 938.98 591.41C939.33 591.2 939.7 591.02 940.04 590.78C941.41 597.39 946.61 602.58 953.22 603.97C953.26 603.99 953.3 603.99 953.35 604C953.84 604.1 954.33 604.17 954.83 604.24C954.9 604.24 954.96 604.26 955.04 604.27C955.6 604.32 956.16 604.36 956.74 604.36C956.79 604.36 956.83 604.34 956.88 604.34C957.53 604.34 958.17 604.3 958.81 604.21C959.03 604.19 959.24 604.15 959.46 604.11C959.95 604.04 960.43 603.94 960.91 603.82C961.11 603.77 961.31 603.73 961.5 603.66C962.14 603.48 962.77 603.27 963.37 603.01C963.45 602.98 963.52 602.94 963.6 602.91C964.14 602.66 964.66 602.4 965.17 602.11C965.34 602.01 965.51 601.92 965.67 601.81C966.11 601.55 966.53 601.26 966.95 600.95C967.07 600.85 967.2 600.76 967.31 600.67C967.84 600.25 968.34 599.81 968.81 599.34C968.86 599.29 968.91 599.23 968.96 599.18C969.37 598.75 969.77 598.31 970.13 597.83C970.24 597.7 970.33 597.58 970.42 597.44C970.77 596.99 971.09 596.51 971.38 596.01C971.43 595.95 971.47 595.89 971.51 595.82C971.95 596.24 972.41 596.61 972.88 596.98C972.98 597.04 973.08 597.12 973.18 597.18C973.8 597.63 974.45 598.04 975.13 598.4C975.18 598.43 975.21 598.46 975.26 598.48C975.97 598.85 976.71 599.15 977.45 599.42C977.6 599.47 977.73 599.52 977.87 599.56C978.61 599.8 979.38 600 980.16 600.13C980.31 600.16 980.46 600.17 980.61 600.2C981.41 600.32 982.22 600.39 983.06 600.4C983.08 600.4 983.1 600.41 983.12 600.41C983.25 600.41 983.36 600.39 983.48 600.38C983.91 600.37 984.33 600.36 984.74 600.32C984.97 600.3 985.19 600.27 985.4 600.23C985.72 600.19 986.04 600.15 986.34 600.09C986.57 600.04 986.8 599.99 987.04 599.93C987.32 599.87 987.6 599.8 987.89 599.72C988.12 599.65 988.34 599.57 988.57 599.5C988.85 599.41 989.11 599.31 989.39 599.2C989.6 599.11 989.82 599.03 990.04 598.93C990.3 598.81 990.57 598.68 990.83 598.55C991.03 598.45 991.23 598.35 991.43 598.24C991.7 598.09 991.97 597.92 992.24 597.75C992.4 597.64 992.58 597.54 992.74 597.43C993.13 597.16 993.51 596.88 993.87 596.59C993.98 596.5 994.09 596.39 994.21 596.3C994.51 596.04 994.81 595.77 995.09 595.49C995.24 595.35 995.36 595.2 995.5 595.05C995.72 594.82 995.94 594.6 996.14 594.36C996.28 594.19 996.41 594.01 996.55 593.84C996.73 593.61 996.91 593.38 997.08 593.14C997.21 592.95 997.34 592.76 997.46 592.56C997.62 592.32 997.77 592.08 997.91 591.83C998.03 591.63 998.14 591.42 998.25 591.22C998.39 590.96 998.51 590.69 998.64 590.42C998.73 590.22 998.82 590.01 998.91 589.81C999.03 589.51 999.14 589.2 999.24 588.9C999.3 588.71 999.38 588.52 999.44 588.33C999.6 587.84 999.72 587.34 999.83 586.83C1000.17 587.07 1000.54 587.25 1000.9 587.46C1001.2 587.64 1001.49 587.84 1001.8 587.99C1002.27 588.24 1002.78 588.43 1003.28 588.63C1003.59 588.75 1003.89 588.89 1004.21 589C1004.77 589.18 1005.36 589.3 1005.95 589.44C1006.23 589.49 1006.5 589.59 1006.79 589.63C1007.67 589.77 1008.58 589.86 1009.51 589.86C1010.43 589.86 1011.32 589.77 1012.2 589.63C1012.28 589.62 1012.35 589.61 1012.42 589.6C1013.26 589.45 1014.07 589.24 1014.85 588.98C1014.96 588.94 1015.07 588.92 1015.16 588.88C1015.93 588.62 1016.66 588.28 1017.37 587.92C1017.48 587.86 1017.59 587.8 1017.69 587.75C1018.39 587.37 1019.06 586.94 1019.68 586.47C1019.72 586.43 1019.78 586.41 1019.83 586.37C1019.83 590.11 1019.83 608.78 1019.83 642.38C1019.83 642.38 1019.82 642.38 1019.82 642.38C1010.24 663.75 999.55 674.44 987.74 674.46C982.46 674.46 940.24 674.46 934.96 674.46Z" id="bXxqcsLZx"></path><path d="M596.41 254.67C596.41 304.34 556.08 344.67 506.41 344.67C456.73 344.67 416.41 304.34 416.41 254.67C416.41 204.99 456.73 164.67 506.41 164.67C556.08 164.67 596.41 204.99 596.41 254.67Z" id="b3XK4RDu6O"></path><path d="M152.87 238.44C150.83 238.44 148.88 238.92 147.13 239.78C147.13 239.75 147.13 239.71 147.13 239.68C147.13 233.19 142.36 227.55 135.76 226.61C135.15 226.53 134.54 226.48 133.92 226.48C131.8 226.48 129.8 227.01 128 227.92C128.57 223.59 133.07 189.02 133.64 184.69C133.72 184.09 133.76 183.47 133.76 182.87C133.76 176.37 128.99 170.73 122.39 169.79C121.77 169.71 121.15 169.67 120.54 169.67C114.04 169.67 108.39 174.43 107.47 181.05C106.84 185.24 103.69 206.17 98.02 243.86C88.16 207.72 82.68 187.64 81.59 183.62C80 177.73 74.67 173.83 68.82 173.83C67.69 173.83 66.55 173.98 65.4 174.29C59.5 175.88 55.61 181.2 55.61 187.04C55.61 188.17 55.76 189.33 56.07 190.47C57.17 195.05 66.01 231.69 67.11 236.26C65.99 236.46 64.82 236.79 63.58 237.25C63.1 237.44 62.61 237.62 62.11 237.85C61.2 238.27 60.6 239.14 60.52 240.13C60.52 240.13 60.51 240.23 60.46 240.56C60.14 242.85 58.13 253.91 47.29 267.79C47.29 267.79 47.29 267.79 47.29 267.79C47.09 268.05 46.94 268.34 46.85 268.65C46.84 268.67 46.83 268.69 46.82 268.71C46.74 269.01 46.71 269.32 46.72 269.64C46.72 269.66 46.71 269.68 46.72 269.7C46.73 269.82 48.12 286.81 53.74 304.05C56.57 312.67 60.43 321.37 65.9 328.12C71.33 334.83 78.67 339.67 87.87 339.67C87.87 339.67 87.91 339.67 87.91 339.67C88.06 339.66 88.17 339.66 88.25 339.66C92.95 339.66 130.58 339.67 135.29 339.67C152.05 339.66 165.62 326.08 165.62 309.33C165.66 303.74 165.94 259.07 165.97 253.48C166.06 252.86 166.1 252.24 166.1 251.63C166.1 245.14 161.32 239.51 154.73 238.57C154.73 238.57 154.73 238.57 154.73 238.57C154.1 238.48 153.49 238.44 152.87 238.44ZM135 232.04C138.86 232.57 141.66 235.9 141.66 239.68C141.66 240.05 141.63 240.42 141.58 240.78C141.54 241.15 141.27 243.02 140.8 246.37C140.59 247.84 139.56 255.2 137.69 268.45C137.47 270.07 137.34 270.97 137.32 271.15C136.93 273.87 136.72 275.39 136.68 275.69C136.67 275.75 136.65 275.8 136.64 275.85C136.03 279.62 132.76 282.35 129.03 282.34C128.67 282.34 128.3 282.32 127.94 282.27C124.56 281.8 122 279.19 121.42 276.01C121.41 275.98 121.4 275.96 121.4 275.93C121.32 275.49 121.28 275.05 121.28 274.6C121.28 274.25 121.31 273.9 121.35 273.54C121.46 272.74 122.03 268.74 123.04 261.55C123.25 260.03 124.95 247.91 125.17 246.4C125.83 241.73 126.19 239.14 126.27 238.62C126.37 237.88 126.59 237.18 126.88 236.53C126.91 236.46 126.93 236.39 126.96 236.32C128.23 233.7 130.94 231.96 133.9 231.96C133.9 231.96 133.91 231.96 133.92 231.96C134.27 231.96 134.63 231.98 135 232.04ZM75.22 278.98C75.2 278.92 75.17 278.87 75.15 278.81C75.15 278.8 75.15 278.79 75.14 278.79C74.96 278.22 74.79 277.37 74.77 276.06C74.77 275.9 74.79 275.72 74.79 275.56C74.79 275.36 74.8 275.16 74.82 274.95C74.82 274.77 74.85 274.57 74.87 274.38C74.9 274.13 74.92 273.88 74.96 273.6C74.99 273.4 75.02 273.17 75.06 272.95C75.1 272.67 75.16 272.36 75.22 272.06C75.27 271.81 75.32 271.57 75.37 271.31C75.41 271.19 75.44 271.04 75.47 270.91C75.58 271.53 76.13 274.61 77.13 280.17C76.98 280.12 75.82 279.79 75.67 279.75C75.63 279.7 75.6 279.66 75.58 279.63C75.47 279.5 75.34 279.29 75.22 278.98ZM88.28 334.19C88.14 334.19 88.01 334.2 87.91 334.2C80.68 334.17 75.01 330.58 70.15 324.66C62.9 315.81 58.26 301.87 55.61 290.21C54.28 284.37 53.41 279.12 52.89 275.32C52.57 273.04 52.38 271.31 52.27 270.29C52.45 270.06 52.61 269.84 52.78 269.61C53.14 269.13 53.49 268.65 53.83 268.18C54.08 267.84 54.3 267.51 54.53 267.19C54.86 266.71 55.19 266.24 55.5 265.78C55.72 265.46 55.92 265.15 56.12 264.83C56.43 264.36 56.73 263.9 57.01 263.44C57.2 263.14 57.37 262.84 57.55 262.55C57.83 262.09 58.11 261.62 58.37 261.17C58.53 260.9 58.68 260.62 58.84 260.35C59.09 259.89 59.35 259.43 59.58 258.98C59.72 258.72 59.84 258.48 59.98 258.23C60.21 257.78 60.45 257.33 60.66 256.89C60.78 256.66 60.88 256.43 60.99 256.2C61.2 255.76 61.42 255.32 61.61 254.89C61.71 254.68 61.79 254.48 61.88 254.28C62.08 253.84 62.27 253.41 62.44 252.99C62.52 252.81 62.59 252.63 62.66 252.45C62.84 252.03 63.01 251.61 63.17 251.2C63.23 251.04 63.27 250.89 63.34 250.74C63.49 250.33 63.64 249.91 63.78 249.52C63.82 249.4 63.86 249.28 63.91 249.15C64.04 248.75 64.18 248.35 64.29 247.98C64.33 247.87 64.36 247.77 64.39 247.66C64.51 247.28 64.63 246.9 64.73 246.55C64.76 246.46 64.77 246.39 64.79 246.31C64.9 245.95 64.99 245.6 65.08 245.27C65.1 245.18 65.12 245.11 65.13 245.03C65.22 244.72 65.29 244.41 65.36 244.13C65.39 244 65.41 243.89 65.44 243.77C65.48 243.56 65.53 243.33 65.57 243.14C65.64 242.83 65.68 242.54 65.73 242.29C66.72 241.92 67.58 241.71 68.33 241.6C68.35 241.6 68.37 241.6 68.39 241.59C68.79 241.54 69.16 241.5 69.49 241.5C70.13 241.5 70.65 241.59 71.1 241.74C71.8 241.97 72.37 242.34 72.88 242.86C73.09 243.08 73.3 243.32 73.5 243.6C74.06 244.33 74.48 245.3 74.82 246.36C75.65 248.97 75.91 252.13 75.87 253.8C75.87 254.08 75.87 254.31 75.86 254.49C75.86 254.5 75.86 254.5 75.86 254.5C75.71 254.8 75.59 255.07 75.45 255.36C75.16 255.99 74.86 256.62 74.59 257.22C74.03 258.47 73.53 259.65 73.06 260.78C70.27 267.65 69.31 272.5 69.3 276.07C69.29 276.7 69.33 277.28 69.39 277.84C69.81 281.96 71.96 284.03 73.04 284.62C73.21 284.72 73.36 284.77 73.46 284.8C73.47 284.81 73.5 284.81 73.55 284.83C73.56 284.83 73.62 284.85 73.71 284.89C76.84 285.82 78.58 286.33 78.93 286.43C79.47 286.6 79.78 286.68 79.84 286.7C80.08 286.78 80.33 286.81 80.58 286.81C80.6 286.81 80.61 286.81 80.62 286.81C80.67 286.81 80.71 286.8 80.77 286.8C80.86 286.79 80.95 286.78 81.05 286.77C81.89 286.78 85.82 286.95 90.18 288.31C95.13 289.86 100.35 292.81 102.92 298.39C103.38 299.39 104.37 299.99 105.4 299.99C105.79 299.99 106.18 299.91 106.55 299.73C107.92 299.1 108.52 297.48 107.88 296.1C104.37 288.53 97.51 284.86 91.8 283.09C88.18 281.96 84.92 281.54 82.92 281.39C82.81 280.77 82.25 277.67 81.25 272.09C81.17 271.68 80.59 268.44 80.52 268.03C79.5 263.95 78.93 261.68 78.82 261.22C79.07 260.65 79.3 260.09 79.58 259.48C80.01 258.53 80.47 257.54 80.97 256.52C80.97 256.52 80.97 256.51 80.97 256.51C80.99 256.46 81.02 256.42 81.03 256.38C81.19 256.05 81.28 255.72 81.31 255.36C81.31 255.32 81.33 254.99 81.34 254.43C81.34 254.24 81.34 254.03 81.34 253.8C81.34 253.8 81.34 253.8 81.34 253.8C81.34 253.27 81.31 252.61 81.28 251.89C81.26 251.56 81.24 251.23 81.22 250.87C81.19 250.49 81.15 250.09 81.1 249.69C80.78 246.83 80 243.37 77.97 240.44C77.61 239.92 77.17 239.43 76.7 238.96C75.65 237.92 74.37 237.04 72.81 236.54C71.67 231.8 62.52 193.86 61.37 189.12C61.17 188.38 61.08 187.71 61.08 187.04C61.09 183.63 63.37 180.49 66.83 179.58C67.49 179.39 68.16 179.31 68.82 179.31C72.24 179.31 75.38 181.58 76.3 185.05C77.5 189.44 83.49 211.39 94.27 250.89C95.01 253.6 95.42 255.1 95.5 255.4C95.58 255.69 95.71 255.94 95.86 256.17C96.46 257.08 97.54 257.56 98.64 257.36C98.68 257.37 98.72 257.38 98.76 257.39C100.26 257.61 101.65 256.58 101.87 255.09C101.89 254.98 101.97 254.44 102.11 253.46C102.21 252.82 102.98 247.69 103.08 247.05C108.96 207.92 112.23 186.19 112.88 181.83C113.42 177.94 116.75 175.14 120.54 175.14C120.89 175.14 121.25 175.17 121.62 175.22C125.49 175.76 128.28 179.09 128.28 182.87C128.28 183.24 128.26 183.61 128.2 183.96C126.98 192.85 117.16 263.9 115.93 272.77C115.85 273.38 115.81 274 115.81 274.6C115.81 275.36 115.87 276.13 116 276.87C116.95 282.38 121.35 286.88 127.18 287.7C127.8 287.78 128.43 287.82 129.03 287.82C134.63 287.82 139.59 284.26 141.45 279.05C143.36 280.81 145.79 282.05 148.55 282.44C149.15 282.53 149.74 282.56 150.32 282.56C150.33 282.56 150.39 282.56 150.4 282.56C154.22 282.56 157.7 280.9 160.14 278.21C160.14 280.28 160.14 290.65 160.14 309.33C160.14 309.33 160.14 309.33 160.15 309.33C152.73 325.88 144.44 334.17 135.29 334.19C130.59 334.19 92.98 334.19 88.28 334.19ZM159.82 257.87C159.05 263.33 158.63 266.37 158.54 266.97C158.25 269.06 158.09 270.21 158.06 270.44C158 270.92 157.87 271.39 157.71 271.86C156.66 274.96 153.69 277.11 150.41 277.09C150.04 277.09 149.67 277.08 149.31 277.02C146.03 276.57 143.54 274.09 142.87 271.03C142.84 270.94 142.81 270.86 142.8 270.77C142.79 270.74 142.78 270.72 142.77 270.7C142.69 270.24 142.65 269.79 142.65 269.34C142.65 269 142.68 268.65 142.73 268.28C142.84 267.53 143.37 263.74 144.33 256.93C144.86 253.11 145.16 250.99 145.22 250.56C145.29 250.07 145.41 249.58 145.58 249.11C145.67 248.83 145.79 248.55 145.93 248.27C145.98 248.16 146.05 248.06 146.11 247.96C147.44 245.52 150.01 243.91 152.85 243.91C152.85 243.91 152.87 243.91 152.87 243.91C153.23 243.91 153.59 243.93 153.96 243.98C153.96 243.98 153.96 243.98 153.96 243.98C157.83 244.52 160.62 247.85 160.62 251.62C160.62 252 160.59 252.36 160.55 252.72C160.49 253.16 160.33 254.25 160.08 256C160.05 256.25 159.96 256.88 159.82 257.87Z" id="b25aWP4vZ"></path><path d="M152.87 238.44C150.83 238.44 148.88 238.92 147.13 239.78C147.13 239.75 147.13 239.71 147.13 239.68C147.13 233.19 142.36 227.55 135.76 226.61C135.15 226.53 134.54 226.48 133.92 226.48C131.8 226.48 129.8 227.01 128 227.92C128.57 223.59 133.07 189.02 133.64 184.69C133.72 184.09 133.76 183.47 133.76 182.87C133.76 176.37 128.99 170.73 122.39 169.79C121.77 169.71 121.15 169.67 120.54 169.67C114.04 169.67 108.39 174.43 107.47 181.05C106.84 185.24 103.69 206.17 98.02 243.86C88.16 207.72 82.68 187.64 81.59 183.62C80 177.73 74.67 173.83 68.82 173.83C67.69 173.83 66.55 173.98 65.4 174.29C59.5 175.88 55.61 181.2 55.61 187.04C55.61 188.17 55.76 189.33 56.07 190.47C57.17 195.05 66.01 231.69 67.11 236.26C65.99 236.46 64.82 236.79 63.58 237.25C63.1 237.44 62.61 237.62 62.11 237.85C61.2 238.27 60.6 239.14 60.52 240.13C60.52 240.13 60.51 240.23 60.46 240.56C60.14 242.85 58.13 253.91 47.29 267.79C47.29 267.79 47.29 267.79 47.29 267.79C47.09 268.05 46.94 268.34 46.85 268.65C46.84 268.67 46.83 268.69 46.82 268.71C46.74 269.01 46.71 269.32 46.72 269.64C46.72 269.66 46.71 269.68 46.72 269.7C46.73 269.82 48.12 286.81 53.74 304.05C56.57 312.67 60.43 321.37 65.9 328.12C71.33 334.83 78.67 339.67 87.87 339.67C87.87 339.67 87.91 339.67 87.91 339.67C88.06 339.66 88.17 339.66 88.25 339.66C92.95 339.66 130.58 339.67 135.29 339.67C152.05 339.66 165.62 326.08 165.62 309.33C165.66 303.74 165.94 259.07 165.97 253.48C166.06 252.86 166.1 252.24 166.1 251.63C166.1 245.14 161.32 239.51 154.73 238.57C154.73 238.57 154.73 238.57 154.73 238.57C154.1 238.48 153.49 238.44 152.87 238.44ZM135 232.04C138.86 232.57 141.66 235.9 141.66 239.68C141.66 240.05 141.63 240.42 141.58 240.78C141.54 241.15 141.27 243.02 140.8 246.37C140.59 247.84 139.56 255.2 137.69 268.45C137.47 270.07 137.34 270.97 137.32 271.15C136.93 273.87 136.72 275.39 136.68 275.69C136.67 275.75 136.65 275.8 136.64 275.85C136.03 279.62 132.76 282.35 129.03 282.34C128.67 282.34 128.3 282.32 127.94 282.27C124.56 281.8 122 279.19 121.42 276.01C121.41 275.98 121.4 275.96 121.4 275.93C121.32 275.49 121.28 275.05 121.28 274.6C121.28 274.25 121.31 273.9 121.35 273.54C121.46 272.74 122.03 268.74 123.04 261.55C123.25 260.03 124.95 247.91 125.17 246.4C125.83 241.73 126.19 239.14 126.27 238.62C126.37 237.88 126.59 237.18 126.88 236.53C126.91 236.46 126.93 236.39 126.96 236.32C128.23 233.7 130.94 231.96 133.9 231.96C133.9 231.96 133.91 231.96 133.92 231.96C134.27 231.96 134.63 231.98 135 232.04ZM75.22 278.98C75.2 278.92 75.17 278.87 75.15 278.81C75.15 278.8 75.15 278.79 75.14 278.79C74.96 278.22 74.79 277.37 74.77 276.06C74.77 275.9 74.79 275.72 74.79 275.56C74.79 275.36 74.8 275.16 74.82 274.95C74.82 274.77 74.85 274.57 74.87 274.38C74.9 274.13 74.92 273.88 74.96 273.6C74.99 273.4 75.02 273.17 75.06 272.95C75.1 272.67 75.16 272.36 75.22 272.06C75.27 271.81 75.32 271.57 75.37 271.31C75.41 271.19 75.44 271.04 75.47 270.91C75.58 271.53 76.13 274.61 77.13 280.17C76.98 280.12 75.82 279.79 75.67 279.75C75.63 279.7 75.6 279.66 75.58 279.63C75.47 279.5 75.34 279.29 75.22 278.98ZM88.28 334.19C88.14 334.19 88.01 334.2 87.91 334.2C80.68 334.17 75.01 330.58 70.15 324.66C62.9 315.81 58.26 301.87 55.61 290.21C54.28 284.37 53.41 279.12 52.89 275.32C52.57 273.04 52.38 271.31 52.27 270.29C52.45 270.06 52.61 269.84 52.78 269.61C53.14 269.13 53.49 268.65 53.83 268.18C54.08 267.84 54.3 267.51 54.53 267.19C54.86 266.71 55.19 266.24 55.5 265.78C55.72 265.46 55.92 265.15 56.12 264.83C56.43 264.36 56.73 263.9 57.01 263.44C57.2 263.14 57.37 262.84 57.55 262.55C57.83 262.09 58.11 261.62 58.37 261.17C58.53 260.9 58.68 260.62 58.84 260.35C59.09 259.89 59.35 259.43 59.58 258.98C59.72 258.72 59.84 258.48 59.98 258.23C60.21 257.78 60.45 257.33 60.66 256.89C60.78 256.66 60.88 256.43 60.99 256.2C61.2 255.76 61.42 255.32 61.61 254.89C61.71 254.68 61.79 254.48 61.88 254.28C62.08 253.84 62.27 253.41 62.44 252.99C62.52 252.81 62.59 252.63 62.66 252.45C62.84 252.03 63.01 251.61 63.17 251.2C63.23 251.04 63.27 250.89 63.34 250.74C63.49 250.33 63.64 249.91 63.78 249.52C63.82 249.4 63.86 249.28 63.91 249.15C64.04 248.75 64.18 248.35 64.29 247.98C64.33 247.87 64.36 247.77 64.39 247.66C64.51 247.28 64.63 246.9 64.73 246.55C64.76 246.46 64.77 246.39 64.79 246.31C64.9 245.95 64.99 245.6 65.08 245.27C65.1 245.18 65.12 245.11 65.13 245.03C65.22 244.72 65.29 244.41 65.36 244.13C65.39 244 65.41 243.89 65.44 243.77C65.48 243.56 65.53 243.33 65.57 243.14C65.64 242.83 65.68 242.54 65.73 242.29C66.72 241.92 67.58 241.71 68.33 241.6C68.35 241.6 68.37 241.6 68.39 241.59C68.79 241.54 69.16 241.5 69.49 241.5C70.13 241.5 70.65 241.59 71.1 241.74C71.8 241.97 72.37 242.34 72.88 242.86C73.09 243.08 73.3 243.32 73.5 243.6C74.06 244.33 74.48 245.3 74.82 246.36C75.65 248.97 75.91 252.13 75.87 253.8C75.87 254.08 75.87 254.31 75.86 254.49C75.86 254.5 75.86 254.5 75.86 254.5C75.71 254.8 75.59 255.07 75.45 255.36C75.16 255.99 74.86 256.62 74.59 257.22C74.03 258.47 73.53 259.65 73.06 260.78C70.27 267.65 69.31 272.5 69.3 276.07C69.29 276.7 69.33 277.28 69.39 277.84C69.81 281.96 71.96 284.03 73.04 284.62C73.21 284.72 73.36 284.77 73.46 284.8C73.47 284.81 73.5 284.81 73.55 284.83C73.56 284.83 73.62 284.85 73.71 284.89C76.84 285.82 78.58 286.33 78.93 286.43C79.47 286.6 79.78 286.68 79.84 286.7C80.08 286.78 80.33 286.81 80.58 286.81C80.6 286.81 80.61 286.81 80.62 286.81C80.67 286.81 80.71 286.8 80.77 286.8C80.86 286.79 80.95 286.78 81.05 286.77C81.89 286.78 85.82 286.95 90.18 288.31C95.13 289.86 100.35 292.81 102.92 298.39C103.38 299.39 104.37 299.99 105.4 299.99C105.79 299.99 106.18 299.91 106.55 299.73C107.92 299.1 108.52 297.48 107.88 296.1C104.37 288.53 97.51 284.86 91.8 283.09C88.18 281.96 84.92 281.54 82.92 281.39C82.81 280.77 82.25 277.67 81.25 272.09C81.17 271.68 80.59 268.44 80.52 268.03C79.5 263.95 78.93 261.68 78.82 261.22C79.07 260.65 79.3 260.09 79.58 259.48C80.01 258.53 80.47 257.54 80.97 256.52C80.97 256.52 80.97 256.51 80.97 256.51C80.99 256.46 81.02 256.42 81.03 256.38C81.19 256.05 81.28 255.72 81.31 255.36C81.31 255.32 81.33 254.99 81.34 254.43C81.34 254.24 81.34 254.03 81.34 253.8C81.34 253.8 81.34 253.8 81.34 253.8C81.34 253.27 81.31 252.61 81.28 251.89C81.26 251.56 81.24 251.23 81.22 250.87C81.19 250.49 81.15 250.09 81.1 249.69C80.78 246.83 80 243.37 77.97 240.44C77.61 239.92 77.17 239.43 76.7 238.96C75.65 237.92 74.37 237.04 72.81 236.54C71.67 231.8 62.52 193.86 61.37 189.12C61.17 188.38 61.08 187.71 61.08 187.04C61.09 183.63 63.37 180.49 66.83 179.58C67.49 179.39 68.16 179.31 68.82 179.31C72.24 179.31 75.38 181.58 76.3 185.05C77.5 189.44 83.49 211.39 94.27 250.89C95.01 253.6 95.42 255.1 95.5 255.4C95.58 255.69 95.71 255.94 95.86 256.17C96.46 257.08 97.54 257.56 98.64 257.36C98.68 257.37 98.72 257.38 98.76 257.39C100.26 257.61 101.65 256.58 101.87 255.09C101.89 254.98 101.97 254.44 102.11 253.46C102.21 252.82 102.98 247.69 103.08 247.05C108.96 207.92 112.23 186.19 112.88 181.83C113.42 177.94 116.75 175.14 120.54 175.14C120.89 175.14 121.25 175.17 121.62 175.22C125.49 175.76 128.28 179.09 128.28 182.87C128.28 183.24 128.26 183.61 128.2 183.96C126.98 192.85 117.16 263.9 115.93 272.77C115.85 273.38 115.81 274 115.81 274.6C115.81 275.36 115.87 276.13 116 276.87C116.95 282.38 121.35 286.88 127.18 287.7C127.8 287.78 128.43 287.82 129.03 287.82C134.63 287.82 139.59 284.26 141.45 279.05C143.36 280.81 145.79 282.05 148.55 282.44C149.15 282.53 149.74 282.56 150.32 282.56C150.33 282.56 150.39 282.56 150.4 282.56C154.22 282.56 157.7 280.9 160.14 278.21C160.14 280.28 160.14 290.65 160.14 309.33C160.14 309.33 160.14 309.33 160.15 309.33C152.73 325.88 144.44 334.17 135.29 334.19C130.59 334.19 92.98 334.19 88.28 334.19ZM159.82 257.87C159.05 263.33 158.63 266.37 158.54 266.97C158.25 269.06 158.09 270.21 158.06 270.44C158 270.92 157.87 271.39 157.71 271.86C156.66 274.96 153.69 277.11 150.41 277.09C150.04 277.09 149.67 277.08 149.31 277.02C146.03 276.57 143.54 274.09 142.87 271.03C142.84 270.94 142.81 270.86 142.8 270.77C142.79 270.74 142.78 270.72 142.77 270.7C142.69 270.24 142.65 269.79 142.65 269.34C142.65 269 142.68 268.65 142.73 268.28C142.84 267.53 143.37 263.74 144.33 256.93C144.86 253.11 145.16 250.99 145.22 250.56C145.29 250.07 145.41 249.58 145.58 249.11C145.67 248.83 145.79 248.55 145.93 248.27C145.98 248.16 146.05 248.06 146.11 247.96C147.44 245.52 150.01 243.91 152.85 243.91C152.85 243.91 152.87 243.91 152.87 243.91C153.23 243.91 153.59 243.93 153.96 243.98C153.96 243.98 153.96 243.98 153.96 243.98C157.83 244.52 160.62 247.85 160.62 251.62C160.62 252 160.59 252.36 160.55 252.72C160.49 253.16 160.33 254.25 160.08 256C160.05 256.25 159.96 256.88 159.82 257.87Z" id="i1LTWjfvTM"></path><path d="M196.41 254.67C196.41 304.34 156.08 344.67 106.41 344.67C56.73 344.67 16.41 304.34 16.41 254.67C16.41 204.99 56.73 164.67 106.41 164.67C156.08 164.67 196.41 204.99 196.41 254.67Z" id="ixdnK25no"></path><path d="M176.78 469.8C176.78 469.8 176.77 469.8 176.77 469.8C171.79 469.8 131.9 469.8 126.92 469.8C109.16 469.8 94.76 484.2 94.75 501.97C94.75 503.7 94.75 517.58 94.75 519.31C94.75 519.41 94.75 519.58 94.75 519.7C94.71 529.47 99.92 537.01 107.1 542.27C128.65 557.92 168.92 557.87 169.17 557.98C169.17 557.98 169.18 557.98 169.19 557.98C169.84 557.98 170.46 557.77 170.98 557.36C179.39 550.8 186.82 547.28 192.1 545.41C194.75 544.48 196.85 543.95 198.27 543.67C198.98 543.52 199.51 543.44 199.86 543.39C200.21 543.34 200.31 543.34 200.31 543.33C201.36 543.25 202.29 542.6 202.72 541.63C204.02 538.76 204.67 536.19 204.67 533.81C204.72 529.8 202.61 526.59 200 524.82C195.1 521.45 188.81 521.3 185.84 521.24C184.84 521.24 184.21 521.29 184.16 521.29C183.79 521.32 183.42 521.41 183.09 521.58C172.28 526.88 165.75 528.23 162.22 528.22C159.9 528.21 158.9 527.69 158.5 527.43C158.46 527.4 158.43 527.38 158.4 527.35C158.32 526.83 157.89 524.22 157.13 519.51C209.4 519.51 238.44 519.51 244.25 519.51C251.99 519.5 258.26 513.23 258.26 505.49C258.23 502.39 257.26 499.4 255.55 496.94C260.91 494.97 264.74 489.86 264.75 483.81C264.74 476.08 258.47 469.8 250.74 469.8C243.34 469.8 184.18 469.8 176.78 469.8ZM190.13 494.38C190.13 495.99 191.42 497.29 193.03 497.29C198.44 497.29 241.76 497.29 247.17 497.29C250.09 498.4 252.49 501.95 252.44 505.49C252.44 510.02 248.77 513.69 244.24 513.7C235.19 513.7 162.76 513.7 153.71 513.7C152.86 513.7 152.05 514.07 151.5 514.72C150.95 515.37 150.71 516.22 150.84 517.07C150.97 517.86 151.61 521.83 152.77 528.98C152.88 529.35 152.94 529.56 152.94 529.59C153.14 530.49 155.74 534.17 162.21 534.03C167.07 534.01 174.12 532.36 185.09 527.06C185.29 527.06 185.54 527.06 185.83 527.06C188.32 526.99 193.93 527.52 196.64 529.56C198.08 530.65 198.81 531.66 198.86 533.82C198.86 534.83 198.63 536.16 198.02 537.8C193.7 538.57 182.15 541.5 168.23 552.16C166.59 552.11 163.02 551.97 158.27 551.55C148.37 550.68 133.48 548.53 121.4 543.52C115.35 541.03 110.04 537.83 106.37 533.91C102.7 529.97 100.58 525.47 100.56 519.7C100.56 519.68 100.56 519.58 100.56 519.39C100.56 508.94 100.56 503.13 100.56 501.97C100.58 487.41 112.36 475.63 126.92 475.6C130.84 475.6 162.2 475.6 166.13 475.6C166.14 475.6 166.14 475.61 166.16 475.61C174.62 475.61 242.28 475.61 250.74 475.61C255.27 475.62 258.94 479.28 258.95 483.82C258.95 487.32 256.75 490.3 253.66 491.48C241.53 491.48 199.09 491.48 193.03 491.48C191.42 491.48 190.13 492.78 190.13 494.38Z" id="bUwBhlXpY"></path><path d="M203.17 488.22C203.17 488.22 203.17 488.22 203.17 488.22C198.18 488.22 158.29 488.22 153.31 488.22C135.55 488.23 121.15 502.62 121.14 520.39C121.14 522.12 121.14 536 121.14 537.73C121.14 537.83 121.14 538 121.14 538.12C121.11 547.89 126.32 555.43 133.5 560.69C155.04 576.35 195.31 576.29 195.56 576.4C195.56 576.4 195.57 576.4 195.58 576.4C196.23 576.4 196.85 576.19 197.37 575.78C205.78 569.22 213.22 565.7 218.5 563.83C221.14 562.9 223.25 562.37 224.66 562.09C225.37 561.94 225.91 561.86 226.25 561.81C226.6 561.76 226.7 561.76 226.7 561.75C227.75 561.67 228.68 561.02 229.12 560.05C230.41 557.18 231.06 554.61 231.06 552.23C231.11 548.22 229 545.02 226.4 543.24C221.49 539.87 215.21 539.72 212.23 539.67C211.23 539.67 210.61 539.71 210.55 539.71C210.18 539.74 209.81 539.84 209.48 540.01C198.67 545.3 192.14 546.65 188.61 546.64C186.29 546.63 185.29 546.11 184.89 545.85C184.86 545.82 184.83 545.8 184.8 545.77C184.71 545.25 184.29 542.64 183.52 537.93C235.8 537.93 264.84 537.93 270.64 537.93C278.38 537.92 284.65 531.65 284.65 523.91C284.63 520.81 283.65 517.82 281.94 515.36C287.3 513.39 291.14 508.28 291.14 502.23C291.14 494.5 284.86 488.22 277.13 488.22C269.73 488.22 210.57 488.22 203.17 488.22ZM216.52 512.8C216.52 514.41 217.82 515.71 219.42 515.71C224.84 515.71 268.15 515.71 273.57 515.71C276.48 516.82 278.88 520.38 278.84 523.91C278.83 528.45 275.16 532.11 270.63 532.12C261.58 532.12 189.15 532.12 180.1 532.12C179.25 532.12 178.44 532.5 177.89 533.14C177.34 533.79 177.1 534.64 177.24 535.49C177.36 536.28 178.01 540.25 179.17 547.4C179.27 547.77 179.33 547.98 179.34 548.01C179.53 548.91 182.14 552.59 188.6 552.45C193.46 552.43 200.51 550.78 211.48 545.48C211.68 545.48 211.93 545.48 212.23 545.48C214.71 545.42 220.32 545.94 223.03 547.98C224.47 549.07 225.2 550.08 225.25 552.24C225.25 553.25 225.02 554.58 224.42 556.22C220.09 556.99 208.54 559.92 194.62 570.58C192.98 570.53 189.41 570.39 184.66 569.98C174.77 569.1 159.87 566.95 147.79 561.94C141.74 559.45 136.44 556.25 132.76 552.33C129.09 548.39 126.97 543.89 126.95 538.12C126.95 538.1 126.95 538 126.95 537.81C126.95 527.36 126.95 521.55 126.95 520.39C126.98 505.83 138.76 494.05 153.31 494.02C157.23 494.02 188.6 494.02 192.52 494.02C192.53 494.02 192.54 494.03 192.55 494.03C201.01 494.03 268.67 494.03 277.13 494.03C281.66 494.04 285.33 497.7 285.34 502.24C285.34 505.74 283.14 508.72 280.05 509.9C267.93 509.9 225.49 509.9 219.42 509.9C217.82 509.9 216.52 511.2 216.52 512.8Z" id="b4IdwmhOYu"></path><path d="M269.75 503C269.75 552.67 229.42 593 179.75 593C130.08 593 89.75 552.67 89.75 503C89.75 453.33 130.08 413 179.75 413C229.42 413 269.75 453.33 269.75 503Z" id="b6e1lipJo"></path><path d="M469.06 444.97C466.34 444.97 463.83 445.82 461.72 447.2C461.72 446.35 461.72 439.53 461.72 438.67C461.72 431.26 455.71 425.26 448.3 425.26C445.37 425.26 442.67 426.21 440.47 427.8C438.88 422.15 433.71 418 427.56 418C420.15 418 414.15 424 414.15 431.41C414.15 431.65 414.15 433.49 414.15 433.72C412.03 432.33 409.53 431.49 406.81 431.49C399.4 431.49 393.4 437.49 393.39 444.9C393.39 449.12 393.39 482.9 393.39 487.12C391.67 484.68 388.65 482.73 384.88 482.78C382.61 482.79 380.13 483.4 377.39 484.65C376.46 485.07 375.85 485.95 375.77 486.96C375.77 486.96 375.76 487.06 375.71 487.39C375.39 489.72 373.34 500.95 362.34 515.03C361.91 515.59 361.7 516.28 361.76 516.98C361.78 517.1 363.19 534.36 368.89 551.85C371.76 560.6 375.67 569.43 381.24 576.28C386.74 583.09 394.19 588 403.52 588C403.52 588 403.57 588 403.58 588C403.75 587.99 403.85 587.99 403.88 587.99C408.66 587.99 446.9 587.99 451.68 588C468.69 587.99 482.47 574.21 482.47 557.21C482.47 554.82 482.47 535.76 482.47 533.38C482.47 533.37 482.48 533.36 482.48 533.35C482.47 533.35 482.47 533.35 482.47 533.35C482.47 488.37 482.47 463.39 482.47 458.39C482.47 450.98 476.47 444.97 469.06 444.97ZM391.15 527.17C390.92 526.94 390.27 526.13 390.23 523.43C390.23 520.91 390.94 516.81 393.39 510.61C393.39 512.91 393.39 518.65 393.39 527.84C392.05 527.44 391.3 527.21 391.15 527.17ZM385.55 572.76C378.19 563.78 373.48 549.62 370.79 537.79C369.44 531.87 368.56 526.53 368.02 522.68C367.7 520.37 367.51 518.61 367.4 517.57C377.54 504.28 380.33 493.27 381.06 489.14C382.63 488.55 383.9 488.34 384.88 488.35C386.94 488.39 387.91 489.09 388.96 490.47C390.91 493.07 391.41 498.44 391.35 500.82C391.35 501.1 391.35 501.34 391.34 501.53C386.27 512.03 384.69 518.78 384.67 523.43C384.54 529.62 388.06 532.11 388.92 532.3C389.56 532.49 394.74 534.04 395.39 534.23C395.81 534.36 397.66 534.49 397.66 534.49C397.66 534.49 398.65 534.52 400.36 534.75C405.63 535.45 416.27 538.27 420.11 546.87C420.58 547.89 421.58 548.49 422.63 548.49C423.02 548.49 423.41 548.41 423.79 548.23C425.19 547.59 425.8 545.95 425.15 544.55C421.56 536.8 414.54 532.96 408.73 531.01C404.48 529.61 400.75 529.15 398.95 529C398.95 520.59 398.95 453.31 398.95 444.9C398.96 440.56 402.47 437.05 406.81 437.04C410.16 437.04 413.02 439.15 414.15 442.1C414.15 442.1 414.15 503.21 414.15 503.24C414.14 504.78 415.37 506.03 416.91 506.03C418.44 506.05 419.69 504.81 419.7 503.27C419.7 496.09 419.7 438.6 419.7 431.41C419.71 427.07 423.22 423.57 427.55 423.55C431.89 423.57 435.41 427.07 435.41 431.41C435.41 439.01 435.41 499.8 435.41 507.4C435.41 508.94 436.66 510.19 438.19 510.19C439.73 510.19 440.97 508.94 440.97 507.4C440.97 507.4 440.97 507.4 440.97 507.4C440.97 464.49 440.97 440.65 440.97 435.88C442.1 432.92 444.95 430.82 448.3 430.82C452.64 430.83 456.15 434.33 456.16 438.67C456.16 445.83 456.16 503.14 456.16 510.31C456.16 511.84 457.4 513.08 458.94 513.08C460.48 513.08 461.72 511.84 461.72 510.31C461.72 510.31 461.72 510.31 461.72 510.31C461.72 477.47 461.72 459.23 461.72 455.58C462.85 452.63 465.7 450.52 469.06 450.53C473.39 450.54 476.9 454.05 476.91 458.39C476.91 463.39 476.91 488.37 476.91 533.35C476.91 547.67 476.91 555.62 476.91 557.21C476.88 571.14 465.61 582.41 451.68 582.44C442.06 582.44 403.65 582.44 403.58 582.44C396.24 582.42 390.48 578.78 385.55 572.76Z" id="bPO95IZ1t"></path><path d="M337.23 444.97C334.5 444.97 332 445.82 329.89 447.2C329.89 446.35 329.89 439.53 329.89 438.67C329.89 431.26 323.88 425.26 316.47 425.26C313.54 425.26 310.84 426.21 308.63 427.8C307.05 422.15 301.88 418 295.73 418C288.32 418 282.32 424 282.31 431.41C282.31 431.65 282.31 433.49 282.31 433.72C280.2 432.33 277.7 431.49 274.98 431.49C267.57 431.49 261.57 437.49 261.56 444.9C261.56 449.12 261.56 482.9 261.56 487.12C259.84 484.68 256.82 482.73 253.04 482.78C250.77 482.79 248.3 483.4 245.55 484.65C244.63 485.07 244.01 485.95 243.94 486.96C243.94 486.96 243.93 487.06 243.88 487.39C243.55 489.72 241.51 500.95 230.5 515.03C230.08 515.59 229.87 516.28 229.92 516.98C229.94 517.1 231.36 534.36 237.06 551.85C239.93 560.6 243.84 569.43 249.4 576.28C254.91 583.09 262.36 588 271.68 588C271.69 588 271.74 588 271.74 588C271.92 587.99 272.02 587.99 272.05 587.99C276.83 587.99 315.07 587.99 319.84 588C336.85 587.99 350.64 574.21 350.64 557.21C350.64 554.82 350.64 535.76 350.64 533.38C350.64 533.37 350.65 533.36 350.65 533.35C350.64 533.35 350.64 533.35 350.63 533.35C350.63 488.37 350.63 463.39 350.63 458.39C350.63 450.98 344.63 444.97 337.23 444.97ZM259.32 527.17C259.09 526.94 258.44 526.13 258.4 523.43C258.39 520.91 259.1 516.81 261.56 510.61C261.56 512.91 261.56 518.65 261.56 527.84C260.22 527.44 259.47 527.21 259.32 527.17ZM253.71 572.76C246.36 563.78 241.65 549.62 238.96 537.79C237.6 531.87 236.73 526.53 236.19 522.68C235.87 520.37 235.68 518.61 235.57 517.57C245.71 504.28 248.5 493.27 249.23 489.14C250.8 488.55 252.07 488.34 253.04 488.35C255.11 488.39 256.07 489.09 257.12 490.47C259.07 493.07 259.58 498.44 259.52 500.82C259.52 501.1 259.51 501.34 259.51 501.53C254.44 512.03 252.86 518.78 252.84 523.43C252.71 529.62 256.23 532.11 257.08 532.3C257.73 532.49 262.91 534.04 263.55 534.23C263.98 534.36 265.82 534.49 265.82 534.49C265.82 534.49 266.81 534.52 268.53 534.75C273.8 535.45 284.44 538.27 288.27 546.87C288.74 547.89 289.75 548.49 290.8 548.49C291.19 548.49 291.58 548.41 291.96 548.23C293.35 547.59 293.96 545.95 293.32 544.55C289.73 536.8 282.71 532.96 276.89 531.01C272.64 529.61 268.92 529.15 267.12 529C267.12 520.59 267.12 453.31 267.12 444.9C267.13 440.56 270.64 437.05 274.98 437.04C278.32 437.04 281.19 439.15 282.31 442.1C282.31 442.1 282.31 503.21 282.31 503.24C282.31 504.78 283.54 506.03 285.07 506.03C286.61 506.05 287.86 504.81 287.87 503.27C287.87 496.09 287.87 438.6 287.87 431.41C287.88 427.07 291.39 423.57 295.72 423.55C300.06 423.57 303.57 427.07 303.58 431.41C303.58 439.01 303.58 499.8 303.58 507.4C303.58 508.94 304.82 510.19 306.36 510.19C307.9 510.19 309.14 508.94 309.14 507.4C309.14 507.4 309.14 507.4 309.13 507.4C309.13 464.49 309.13 440.65 309.13 435.88C310.27 432.92 313.12 430.82 316.47 430.82C320.81 430.83 324.32 434.33 324.33 438.67C324.33 445.83 324.33 503.14 324.33 510.31C324.33 511.84 325.57 513.08 327.1 513.08C328.64 513.08 329.89 511.84 329.89 510.31C329.89 510.31 329.89 510.31 329.89 510.31C329.89 477.47 329.89 459.23 329.89 455.58C331.02 452.63 333.87 450.52 337.23 450.53C341.56 450.54 345.07 454.05 345.07 458.39C345.07 463.39 345.07 488.37 345.07 533.35C345.07 547.67 345.07 555.62 345.07 557.21C345.05 571.14 333.78 582.41 319.84 582.44C310.23 582.44 271.82 582.44 271.74 582.44C264.41 582.42 258.65 578.78 253.71 572.76Z" id="erCHTrosu"></path><path d="M518.69 503C518.69 552.67 478.37 593 428.69 593C379.02 593 338.69 552.67 338.69 503C338.69 453.33 379.02 413 428.69 413C478.37 413 518.69 453.33 518.69 503Z" id="c8fkuGaIg"></path></defs><g><g><g><use xlink:href="#egOHsMFa6" opacity="1" fill="#000000" fill-opacity="1"></use><g><use xlink:href="#egOHsMFa6" opacity="1" fill-opacity="0" stroke="#000000" stroke-width="1" stroke-opacity="0"></use></g></g><g><use xlink:href="#b30JPeo9" opacity="1" fill="#000000" fill-opacity="0"></use><g><use xlink:href="#b30JPeo9" opacity="1" fill-opacity="0" stroke="#000000" stroke-width="1" stroke-opacity="0"></use></g></g><g><use xlink:href="#a36n8mP2OW" opacity="1" fill="#a03d44" fill-opacity="0"></use><g><use xlink:href="#a36n8mP2OW" opacity="1" fill-opacity="0" stroke="#000000" stroke-width="7" stroke-opacity="1"></use></g></g><g><use xlink:href="#crHKL1DmO" opacity="1" fill="#000000" fill-opacity="1"></use><g><use xlink:href="#crHKL1DmO" opacity="1" fill-opacity="0" stroke="#000000" stroke-width="1" stroke-opacity="0"></use></g></g><g><use xlink:href="#bXxqcsLZx" opacity="1" fill="#000000" fill-opacity="0"></use><g><use xlink:href="#bXxqcsLZx" opacity="1" fill-opacity="0" stroke="#000000" stroke-width="1" stroke-opacity="0"></use></g></g><g><use xlink:href="#b3XK4RDu6O" opacity="1" fill="#a03d44" fill-opacity="0"></use><g><use xlink:href="#b3XK4RDu6O" opacity="1" fill-opacity="0" stroke="#000000" stroke-width="7" stroke-opacity="1"></use></g></g><g><use xlink:href="#b25aWP4vZ" opacity="1" fill="#000000" fill-opacity="1"></use><g><use xlink:href="#b25aWP4vZ" opacity="1" fill-opacity="0" stroke="#000000" stroke-width="1" stroke-opacity="0"></use></g></g><g><use xlink:href="#i1LTWjfvTM" opacity="1" fill="#000000" fill-opacity="0"></use><g><use xlink:href="#i1LTWjfvTM" opacity="1" fill-opacity="0" stroke="#000000" stroke-width="1" stroke-opacity="0"></use></g></g><g><use xlink:href="#ixdnK25no" opacity="1" fill="#a03d44" fill-opacity="0"></use><g><use xlink:href="#ixdnK25no" opacity="1" fill-opacity="0" stroke="#000000" stroke-width="7" stroke-opacity="1"></use></g></g><g><use xlink:href="#bUwBhlXpY" opacity="1" fill="#000000" fill-opacity="1"></use><g><use xlink:href="#bUwBhlXpY" opacity="1" fill-opacity="0" stroke="#000000" stroke-width="1" stroke-opacity="0"></use></g></g><g><use xlink:href="#b4IdwmhOYu" opacity="1" fill="#000000" fill-opacity="0"></use><g><use xlink:href="#b4IdwmhOYu" opacity="1" fill-opacity="0" stroke="#000000" stroke-width="1" stroke-opacity="0"></use></g></g><g><use xlink:href="#b6e1lipJo" opacity="1" fill="#a03d44" fill-opacity="0"></use><g><use xlink:href="#b6e1lipJo" opacity="1" fill-opacity="0" stroke="#000000" stroke-width="7" stroke-opacity="1"></use></g></g><g><use xlink:href="#bPO95IZ1t" opacity="1" fill="#000000" fill-opacity="1"></use><g><use xlink:href="#bPO95IZ1t" opacity="1" fill-opacity="0" stroke="#000000" stroke-width="1" stroke-opacity="0"></use></g></g><g><use xlink:href="#erCHTrosu" opacity="1" fill="#000000" fill-opacity="0"></use><g><use xlink:href="#erCHTrosu" opacity="1" fill-opacity="0" stroke="#000000" stroke-width="1" stroke-opacity="0"></use></g></g><g><use xlink:href="#c8fkuGaIg" opacity="1" fill="#a03d44" fill-opacity="0"></use><g><use xlink:href="#c8fkuGaIg" opacity="1" fill-opacity="0" stroke="#000000" stroke-width="7" stroke-opacity="1"></use></g></g></g></g></svg>