<?xml version="1.0" encoding="UTF-8" standalone="no"?>
<!DOCTYPE svg PUBLIC "-//W3C//DTD SVG 1.1//EN" "http://www.w3.org/Graphics/SVG/1.1/DTD/svg11.dtd">
<svg version="1.1" xmlns="http://www.w3.org/2000/svg" xmlns:xlink="http://www.w3.org/1999/xlink" preserveAspectRatio="xMidYMid meet" viewBox="0 0 290 290" width="290" height="290"><defs><path d="M237.74 71.1C237.74 58.83 227.8 48.87 215.53 48.87C211.02 48.87 206.87 50.27 203.37 52.57C203.37 51.15 203.37 39.85 203.37 38.44C203.37 26.16 193.42 16.22 181.14 16.21C176.29 16.22 171.81 17.79 168.16 20.43C165.54 11.06 156.97 4.19 146.78 4.19C134.51 4.19 124.57 14.13 124.56 26.41C124.56 26.8 124.56 29.85 124.56 30.23C121.06 27.93 116.91 26.54 112.41 26.53C100.13 26.54 90.19 36.48 90.18 48.75C90.18 55.75 90.18 111.7 90.18 118.69C87.33 114.65 82.32 111.43 76.07 111.51C72.31 111.52 68.21 112.53 63.66 114.61C62.13 115.3 61.11 116.76 60.98 118.43C60.98 118.43 60.97 118.59 60.89 119.14C60.35 123 56.96 141.61 38.73 164.94C38.02 165.86 37.68 167 37.77 168.16C37.8 168.36 40.14 196.95 49.59 225.93C54.34 240.43 60.82 255.06 70.04 266.4C79.16 277.68 91.5 285.82 106.95 285.82C106.96 285.82 107.04 285.82 107.05 285.82C107.34 285.81 107.5 285.81 107.55 285.81C115.47 285.81 178.82 285.81 186.73 285.82C214.91 285.81 237.75 262.98 237.75 234.81C237.75 230.86 237.75 199.28 237.75 195.34C237.75 195.32 237.76 195.3 237.76 195.28C237.75 195.28 237.75 195.28 237.74 195.28C237.74 120.77 237.74 79.38 237.74 71.1ZM90.18 186.15C87.95 185.49 86.71 185.12 86.46 185.05C86.08 184.66 85.01 183.33 84.94 178.85C84.93 174.68 86.11 167.88 90.18 157.61C90.18 161.42 90.18 170.93 90.18 186.15ZM107.05 276.61C94.9 276.57 85.36 270.54 77.18 260.58C65 245.69 57.19 222.24 52.73 202.64C50.49 192.83 49.04 183.99 48.15 177.6C47.62 173.78 47.3 170.87 47.12 169.15C63.92 147.13 68.54 128.88 69.75 122.04C72.35 121.07 74.45 120.72 76.07 120.73C79.49 120.8 81.09 121.96 82.83 124.25C86.06 128.55 86.89 137.45 86.8 141.39C86.8 141.86 86.79 142.26 86.78 142.57C78.38 159.96 75.76 171.15 75.73 178.85C75.51 189.1 81.35 193.23 82.76 193.54C83.83 193.86 92.41 196.42 93.48 196.74C94.19 196.95 97.24 197.17 97.24 197.17C97.24 197.17 98.88 197.22 101.72 197.61C110.45 198.76 128.08 203.43 134.43 217.69C135.21 219.37 136.88 220.37 138.61 220.37C139.26 220.37 139.91 220.23 140.54 219.94C142.85 218.88 143.86 216.15 142.79 213.84C136.84 201 125.21 194.63 115.58 191.41C108.54 189.09 102.37 188.33 99.39 188.08C99.39 174.15 99.39 62.69 99.39 48.75C99.4 41.56 105.22 35.75 112.41 35.74C117.95 35.73 122.69 39.22 124.56 44.12C124.56 44.12 124.56 145.36 124.56 145.4C124.55 147.95 126.59 150.02 129.13 150.03C131.67 150.05 133.75 148 133.76 145.45C133.76 133.55 133.76 38.32 133.76 26.41C133.78 19.22 139.59 13.41 146.77 13.39C153.96 13.41 159.78 19.22 159.79 26.41C159.79 39 159.79 139.71 159.79 152.3C159.79 154.84 161.85 156.91 164.39 156.91C166.94 156.91 169 154.84 169 152.3C169 152.3 169 152.3 168.99 152.3C168.99 81.21 168.99 41.71 168.99 33.81C170.87 28.9 175.59 25.42 181.14 25.42C188.33 25.44 194.15 31.25 194.16 38.44C194.16 50.3 194.16 145.24 194.16 157.11C194.16 159.65 196.22 161.71 198.76 161.71C201.31 161.71 203.37 159.65 203.37 157.11C203.37 157.11 203.37 157.11 203.37 157.11C203.37 102.71 203.37 72.5 203.37 66.45C205.25 61.56 209.97 58.07 215.53 58.08C222.71 58.09 228.52 63.91 228.53 71.1C228.53 79.38 228.53 120.77 228.53 195.29C228.53 219 228.53 232.18 228.53 234.81C228.49 257.89 209.82 276.56 186.73 276.61C170.8 276.61 107.17 276.61 107.05 276.61Z" id="cpDXhDbhj"></path></defs><g><g><g><use xlink:href="#cpDXhDbhj" opacity="1" fill="#000000" fill-opacity="1"></use><g><use xlink:href="#cpDXhDbhj" opacity="1" fill-opacity="0" stroke="#000000" stroke-width="1" stroke-opacity="0"></use></g></g></g></g></svg>