<?xml version="1.0" encoding="UTF-8" standalone="no"?>
<!DOCTYPE svg PUBLIC "-//W3C//DTD SVG 1.1//EN" "http://www.w3.org/Graphics/SVG/1.1/DTD/svg11.dtd">
<svg version="1.1" xmlns="http://www.w3.org/2000/svg" xmlns:xlink="http://www.w3.org/1999/xlink" preserveAspectRatio="xMidYMid meet" viewBox="0 0 290 290" width="290" height="290"><defs><path d="M224.59 118.49C223.56 118.34 222.55 118.27 221.53 118.27C218.17 118.27 214.96 119.07 212.07 120.48C212.07 120.43 212.08 120.37 212.08 120.32C212.08 109.62 204.22 100.33 193.35 98.79C192.34 98.65 191.33 98.58 190.31 98.58C186.83 98.58 183.53 99.45 180.57 100.94C181.5 93.82 188.92 36.87 189.85 29.75C189.99 28.76 190.05 27.74 190.05 26.74C190.05 16.04 182.19 6.75 171.32 5.21C170.31 5.07 169.29 5 168.28 5C157.58 5 148.27 12.85 146.75 23.75C145.71 30.65 140.53 65.13 131.19 127.2C114.95 67.67 105.92 34.6 104.12 27.99C101.51 18.28 92.73 11.86 83.1 11.86C81.24 11.86 79.35 12.1 77.46 12.61C67.75 15.23 61.34 24 61.34 33.62C61.34 35.48 61.58 37.38 62.09 39.27C63.91 46.81 78.46 107.15 80.28 114.69C78.43 115.01 76.5 115.55 74.47 116.32C73.67 116.63 72.87 116.93 72.04 117.31C70.55 118 69.55 119.42 69.42 121.06C69.42 121.06 69.41 121.22 69.33 121.76C68.8 125.53 65.48 143.76 47.63 166.61C47.63 166.61 47.63 166.62 47.63 166.62C47.3 167.04 47.06 167.52 46.9 168.03C46.89 168.06 46.87 168.09 46.86 168.13C46.72 168.62 46.67 169.13 46.7 169.66C46.7 169.7 46.68 169.72 46.69 169.76C46.71 169.96 49 197.95 58.26 226.33C62.91 240.54 69.27 254.87 78.29 265.98C87.23 277.03 99.32 285 114.47 285C114.47 285 114.53 285 114.53 285C114.78 284.99 114.96 284.99 115.09 284.99C122.84 284.99 184.82 285 192.57 285C220.17 284.99 242.53 262.62 242.53 235.03C242.59 225.83 243.05 152.25 243.11 143.05C243.25 142.02 243.32 141 243.31 140C243.31 129.31 235.45 120.03 224.59 118.49C224.59 118.49 224.59 118.49 224.59 118.49ZM190.31 107.6C190.89 107.6 191.49 107.64 192.1 107.73C198.46 108.61 203.06 114.09 203.06 120.32C203.06 120.93 203.02 121.53 202.94 122.12C202.86 122.74 202.42 125.81 201.65 131.33L196.53 167.71L195.91 172.15C195.28 176.63 194.93 179.13 194.86 179.62C194.85 179.72 194.81 179.8 194.8 179.89C193.79 186.1 188.4 190.59 182.27 190.58C181.67 190.58 181.06 190.55 180.47 190.47C174.9 189.69 170.69 185.39 169.72 180.15C169.71 180.11 169.7 180.07 169.69 180.02C169.56 179.3 169.5 178.58 169.5 177.83C169.5 177.26 169.54 176.68 169.62 176.08C169.8 174.77 170.73 168.18 172.4 156.33L175.9 131.38C176.99 123.69 177.59 119.42 177.71 118.57C177.88 117.35 178.24 116.2 178.72 115.13C178.77 115.02 178.8 114.89 178.86 114.78C180.95 110.47 185.4 107.6 190.29 107.6C190.29 107.6 190.3 107.6 190.31 107.6ZM94.22 186.12C94.05 185.9 93.84 185.56 93.63 185.04C93.6 184.94 93.56 184.86 93.52 184.76C93.52 184.75 93.52 184.74 93.51 184.73C93.2 183.8 92.93 182.39 92.9 180.23C92.9 179.98 92.92 179.68 92.93 179.41C92.93 179.09 92.94 178.76 92.97 178.41C92.98 178.11 93.03 177.79 93.06 177.47C93.1 177.05 93.14 176.64 93.2 176.19C93.25 175.86 93.31 175.48 93.37 175.12C93.44 174.65 93.53 174.15 93.63 173.64C93.71 173.24 93.8 172.84 93.89 172.42C93.94 172.21 94 171.97 94.05 171.75C94.23 172.77 95.14 177.85 96.78 187L94.38 186.31C94.31 186.23 94.26 186.17 94.22 186.12ZM192.57 275.98C184.83 275.98 122.89 275.98 115.15 275.98C114.92 275.98 114.7 275.99 114.53 275.99C102.63 275.95 93.29 270.04 85.28 260.29C73.35 245.7 65.7 222.74 61.34 203.54C59.14 193.93 57.72 185.28 56.86 179.02C56.33 175.27 56.02 172.42 55.84 170.74C56.13 170.36 56.39 169.99 56.68 169.61C57.27 168.82 57.85 168.03 58.41 167.25C58.81 166.7 59.18 166.16 59.56 165.62C60.1 164.84 60.65 164.06 61.16 163.3C61.51 162.77 61.84 162.26 62.18 161.74C62.68 160.97 63.18 160.2 63.65 159.45C63.95 158.96 64.24 158.47 64.53 157.98C64.99 157.22 65.45 156.46 65.88 155.71C66.15 155.26 66.39 154.81 66.65 154.36C67.07 153.6 67.49 152.85 67.88 152.11C68.11 151.68 68.31 151.28 68.53 150.87C68.91 150.13 69.3 149.38 69.65 148.66C69.85 148.28 70.02 147.91 70.2 147.53C70.55 146.8 70.9 146.07 71.22 145.37C71.38 145.03 71.52 144.7 71.67 144.36C71.99 143.64 72.31 142.93 72.59 142.24C72.72 141.94 72.83 141.65 72.95 141.35C73.24 140.65 73.52 139.96 73.78 139.29C73.88 139.03 73.96 138.78 74.06 138.53C74.31 137.85 74.56 137.17 74.79 136.53C74.86 136.32 74.92 136.12 75 135.91C75.22 135.25 75.45 134.6 75.64 133.98C75.7 133.8 75.75 133.64 75.8 133.46C76 132.83 76.19 132.21 76.36 131.63C76.4 131.49 76.42 131.37 76.46 131.24C76.63 130.65 76.79 130.06 76.93 129.52C76.97 129.38 77 129.26 77.02 129.13C77.16 128.61 77.28 128.1 77.39 127.64C77.44 127.43 77.47 127.25 77.52 127.06C77.59 126.7 77.68 126.33 77.74 126.01C77.85 125.5 77.93 125.03 78.01 124.61C79.64 124.01 81.05 123.66 82.29 123.48C82.32 123.48 82.36 123.48 82.39 123.47C83.04 123.38 83.65 123.32 84.19 123.32C85.25 123.32 86.11 123.47 86.85 123.71C88.01 124.09 88.94 124.69 89.78 125.56C90.13 125.92 90.48 126.31 90.81 126.77C91.72 127.98 92.42 129.58 92.97 131.32C94.35 135.62 94.77 140.82 94.7 143.57C94.7 144.03 94.7 144.41 94.69 144.71C94.69 144.72 94.69 144.72 94.69 144.73C94.45 145.22 94.25 145.67 94.02 146.15C93.54 147.18 93.05 148.22 92.6 149.2C91.67 151.26 90.85 153.2 90.08 155.07C85.49 166.39 83.9 174.37 83.88 180.25C83.86 181.29 83.93 182.24 84.03 183.16C84.72 189.96 88.27 193.36 90.04 194.34C90.33 194.5 90.57 194.59 90.74 194.63C90.75 194.64 90.8 194.65 90.89 194.68L91.15 194.78L99.74 197.32C100.64 197.59 101.14 197.73 101.24 197.76C101.64 197.89 102.05 197.94 102.46 197.95C102.49 197.95 102.51 197.95 102.53 197.95C102.61 197.95 102.68 197.92 102.77 197.92C102.92 197.91 103.08 197.9 103.24 197.87C104.62 197.9 111.1 198.18 118.27 200.42C126.42 202.97 135.02 207.82 139.25 217.02C140.01 218.67 141.64 219.65 143.35 219.65C143.98 219.65 144.62 219.52 145.23 219.23C147.5 218.19 148.48 215.51 147.43 213.25C141.65 200.77 130.34 194.73 120.95 191.81C114.98 189.96 109.61 189.27 106.31 189.01C106.13 187.99 105.21 182.88 103.56 173.69L102.36 167.01C100.68 160.29 99.75 156.55 99.56 155.8C99.97 154.85 100.35 153.93 100.81 152.92C101.52 151.36 102.28 149.74 103.1 148.06C103.1 148.05 103.11 148.03 103.11 148.03C103.14 147.96 103.18 147.89 103.21 147.82C103.47 147.28 103.61 146.74 103.66 146.14C103.66 146.07 103.7 145.53 103.71 144.61C103.72 144.3 103.72 143.95 103.72 143.57C103.72 143.57 103.72 143.57 103.72 143.57C103.71 142.7 103.67 141.61 103.61 140.42C103.58 139.88 103.55 139.34 103.51 138.75C103.46 138.12 103.4 137.47 103.32 136.8C102.8 132.1 101.5 126.4 98.17 121.56C97.57 120.71 96.85 119.9 96.08 119.13C94.35 117.42 92.23 115.97 89.66 115.15C87.78 107.34 72.71 44.85 70.82 37.04C70.5 35.82 70.35 34.72 70.35 33.62C70.36 28 74.12 22.83 79.81 21.32C80.91 21.01 82.01 20.88 83.1 20.88C88.73 20.88 93.9 24.63 95.42 30.34C97.39 37.57 107.26 73.72 125.01 138.78C126.23 143.24 126.9 145.72 127.04 146.21C127.17 146.68 127.38 147.09 127.63 147.48C128.61 148.97 130.4 149.77 132.21 149.43C132.28 149.45 132.34 149.47 132.4 149.49C134.87 149.85 137.16 148.15 137.53 145.7C137.56 145.52 137.69 144.62 137.93 143.02L139.52 132.45C149.21 68.01 154.59 32.21 155.66 25.04C156.55 18.63 162.03 14.02 168.28 14.02C168.86 14.02 169.45 14.07 170.06 14.15C176.43 15.04 181.03 20.52 181.03 26.75C181.02 27.35 180.99 27.96 180.9 28.55C178.88 43.18 162.71 160.2 160.69 174.82C160.55 175.82 160.48 176.84 160.49 177.83C160.48 179.09 160.59 180.35 160.8 181.57C162.36 190.64 169.62 198.05 179.22 199.4C180.24 199.54 181.27 199.61 182.26 199.61C191.49 199.61 199.65 193.74 202.72 185.16C205.86 188.06 209.86 190.1 214.41 190.75C215.4 190.9 216.38 190.95 217.33 190.95C217.34 190.95 217.45 190.95 217.46 190.95C223.75 190.95 229.48 188.2 233.5 183.77C233.5 187.19 233.5 204.27 233.5 235.03L233.51 235.03C221.29 262.3 207.64 275.95 192.57 275.98ZM233.41 147.2L232.98 150.28L230.87 165.27C230.39 168.7 230.12 170.6 230.07 170.98C229.97 171.77 229.77 172.54 229.5 173.32C227.77 178.43 222.88 181.96 217.47 181.94C216.86 181.94 216.26 181.91 215.67 181.82C210.26 181.07 206.16 176.99 205.05 171.95C205.01 171.81 204.96 171.67 204.94 171.53C204.92 171.48 204.91 171.44 204.9 171.4C204.76 170.65 204.7 169.91 204.7 169.16C204.7 168.6 204.74 168.03 204.82 167.43C205 166.18 205.88 159.95 207.46 148.73C208.34 142.44 208.83 138.94 208.93 138.24C209.04 137.43 209.24 136.62 209.52 135.85C209.67 135.38 209.87 134.92 210.09 134.46C210.18 134.28 210.29 134.12 210.4 133.95C212.58 129.93 216.81 127.28 221.49 127.28C221.5 127.28 221.53 127.28 221.53 127.28C222.12 127.28 222.72 127.31 223.33 127.4C223.33 127.4 223.33 127.4 223.33 127.4C229.69 128.29 234.3 133.77 234.3 139.99C234.29 140.6 234.25 141.2 234.17 141.8C234.07 142.52 233.82 144.32 233.41 147.2Z" id="edxpzUZY4"></path></defs><g><g><g><use xlink:href="#edxpzUZY4" opacity="1" fill="#000000" fill-opacity="1"></use><g><use xlink:href="#edxpzUZY4" opacity="1" fill-opacity="0" stroke="#000000" stroke-width="1" stroke-opacity="0"></use></g></g></g></g></svg>