<?xml version="1.0" encoding="UTF-8" standalone="no"?>
<!DOCTYPE svg PUBLIC "-//W3C//DTD SVG 1.1//EN" "http://www.w3.org/Graphics/SVG/1.1/DTD/svg11.dtd">
<svg version="1.1" xmlns="http://www.w3.org/2000/svg" xmlns:xlink="http://www.w3.org/1999/xlink" preserveAspectRatio="xMidYMid meet" viewBox="0 0 290 290" width="290" height="290"><defs><path d="M225.73 39.38C222.24 39.38 218.89 40.21 215.89 41.69C215.98 41.07 216.69 36.1 216.78 35.48C216.92 34.41 217 33.37 217 32.33C217 21.37 208.94 11.84 197.8 10.27C196.74 10.12 195.69 10.05 194.66 10.05C183.7 10.05 174.17 18.1 172.6 29.25C171.64 35.65 166.88 67.67 158.3 125.3C140.66 63.01 130.86 28.4 128.9 21.48C126.23 11.58 117.23 5 107.37 5C105.45 5 103.5 5.25 101.57 5.78C91.62 8.45 85.04 17.45 85.04 27.31C85.04 27.98 85.12 28.67 85.18 29.35C82.41 28.15 79.42 27.43 76.32 27.43C74.4 27.43 72.45 27.67 70.51 28.2C60.56 30.88 53.98 39.86 53.98 49.73C53.98 51.64 54.23 53.59 54.75 55.53C56.09 61.02 66.8 104.94 68.14 110.43C65.52 110.89 62.75 111.75 59.77 113.1C58.24 113.81 57.22 115.27 57.08 116.95C57.08 116.95 57.07 117.1 56.99 117.66C56.45 121.53 53.05 140.22 34.75 163.65C34.04 164.56 33.69 165.72 33.79 166.88C33.82 167.07 36.17 195.77 45.66 224.87C50.42 239.43 56.94 254.11 66.19 265.5C75.34 276.83 87.73 285 103.25 285C103.26 285 103.33 285 103.34 285C103.64 284.99 103.8 284.99 103.83 284.99C111.79 284.99 175.4 284.99 183.36 284.99C211.64 284.99 234.56 262.07 234.56 233.79C234.56 229.49 234.56 208.02 234.56 169.37C242.54 106.59 246.98 71.71 247.86 64.74C248 63.73 248.07 62.69 248.07 61.67C248.06 50.7 240 41.17 228.86 39.6C227.82 39.45 226.77 39.38 225.73 39.38ZM227.65 150.43L225.32 168.76L225.32 171.81C225.32 209 225.32 229.66 225.32 233.79C225.27 256.97 206.53 275.72 183.36 275.76C175.42 275.76 111.91 275.76 103.97 275.76C103.71 275.75 103.45 275.76 103.34 275.76C91.14 275.72 81.56 269.67 73.36 259.67C61.12 244.72 53.28 221.18 48.81 201.5C46.56 191.66 45.11 182.78 44.22 176.38C43.68 172.52 43.35 169.59 43.17 167.87C60.03 145.76 64.68 127.44 65.89 120.57C67.59 119.94 69.06 119.59 70.33 119.41C71.01 119.31 71.66 119.25 72.23 119.25C73.31 119.25 74.2 119.41 74.96 119.65C76.63 120.2 77.87 121.19 79.04 122.8C82.27 127.1 83.11 136.05 83.02 140.01C83.02 140.48 83.01 140.87 83 141.18C82.23 142.78 81.53 144.3 80.86 145.78C79.9 147.89 79.06 149.88 78.28 151.8C73.57 163.4 71.93 171.58 71.91 177.62C71.68 187.89 77.53 192.04 78.94 192.35C78.97 192.36 79.11 192.41 79.36 192.5C85.58 194.34 89.03 195.36 89.72 195.57C89.83 195.6 89.94 195.6 90.05 195.62C90.14 195.64 90.23 195.65 90.31 195.66C90.53 195.72 90.76 195.72 90.99 195.74C91.25 195.77 91.49 195.85 91.75 195.83C93.14 195.86 100.02 196.11 107.55 198.49C115.8 201.1 124.41 206.02 128.68 215.31C129.47 217 131.13 217.99 132.88 217.99C133.53 217.99 134.19 217.86 134.81 217.57C137.13 216.5 138.14 213.76 137.08 211.44C131.23 198.83 119.87 192.67 110.33 189.67C104.04 187.7 98.4 187 94.94 186.75C94.75 185.69 93.8 180.4 92.09 170.88L90.87 164.04C89.55 156.74 88.83 152.68 88.68 151.87C88.64 151.67 88.59 151.46 88.53 151.26C88.77 150.71 89.01 150.16 89.27 149.6C90.04 147.91 90.84 146.19 91.73 144.37C92 143.82 92.15 143.25 92.19 142.64C92.2 142.56 92.26 141.58 92.26 140C92.17 135.25 91.93 125.25 86.56 117.44C84.56 114.59 81.61 112.06 77.77 110.85C77.76 110.84 77.75 110.84 77.74 110.84C76.34 105.08 65.11 58.99 63.71 53.23C63.37 51.98 63.23 50.85 63.23 49.74C63.23 43.99 67.08 38.68 72.92 37.13C74.06 36.82 75.19 36.67 76.32 36.67C82.07 36.67 87.36 40.52 88.92 46.36C90.27 51.13 97.01 74.98 109.15 117.91C114.24 136.41 117.07 146.69 117.63 148.74C118.2 150.79 120.06 152.13 122.09 152.13C122.49 152.13 122.9 152.08 123.31 151.97C125.77 151.29 127.22 148.74 126.54 146.29C126.41 145.81 125.36 141.99 125.23 141.51C125.23 141.09 125.2 140.67 125.08 140.25C125.08 140.25 125.08 140.25 125.07 140.25L118.09 115.54C104.07 64.62 96.29 36.33 94.73 30.67C94.43 29.55 94.28 28.42 94.28 27.31C94.28 21.55 98.14 16.25 103.97 14.7C105.11 14.39 106.24 14.24 107.37 14.24C113.12 14.25 118.43 18.09 119.98 23.93C123.4 35.99 150.72 132.44 154.13 144.49C154.79 146.81 157.11 148.19 159.42 147.75C159.49 147.77 159.55 147.8 159.62 147.8C159.85 147.84 160.09 147.86 160.31 147.86C162.56 147.86 164.54 146.21 164.89 143.92C164.89 143.92 164.89 143.92 164.88 143.91C175 75.91 180.62 38.14 181.75 30.58C182.66 24 188.27 19.29 194.66 19.29C195.27 19.29 195.88 19.33 196.5 19.42C203.04 20.33 207.75 25.94 207.75 32.33C207.75 32.92 207.71 33.55 207.62 34.21C207.33 36.22 205.02 52.26 204.73 54.26C204.24 55.64 203.87 57.09 203.67 58.59C203.09 62.8 200.21 83.8 195.02 121.62C193.98 128.82 193.4 132.82 193.29 133.62C193.24 133.92 193.23 134.21 193.25 134.5C193.12 135.43 192.1 142.87 191.97 143.8C191.62 146.34 193.39 148.66 195.92 149.01C198.44 149.36 200.78 147.59 201.13 145.06C201.33 143.62 202.31 136.42 204.09 123.45C209.87 83.41 213.07 61.17 213.71 56.72C215.7 51.89 220.42 48.62 225.73 48.62C226.33 48.62 226.94 48.66 227.56 48.75C234.1 49.66 238.83 55.27 238.83 61.67C238.83 62.29 238.78 62.9 238.69 63.52C237.22 75.11 233.54 104.08 227.65 150.43ZM85.16 184.57C83.68 184.13 82.85 183.89 82.68 183.84C82.3 183.46 81.23 182.11 81.17 177.62C81.16 175.44 81.47 172.56 82.34 168.86C82.72 170.95 83.66 176.19 85.16 184.57Z" id="c7mQbPkbB3"></path></defs><g><g><g><use xlink:href="#c7mQbPkbB3" opacity="1" fill="#000000" fill-opacity="1"></use><g><use xlink:href="#c7mQbPkbB3" opacity="1" fill-opacity="0" stroke="#000000" stroke-width="1" stroke-opacity="0"></use></g></g></g></g></svg>